<?xml version="1.0" standalone="no"?>
<!DOCTYPE svg PUBLIC "-//W3C//DTD SVG 1.1//EN" "http://www.w3.org/Graphics/SVG/1.1/DTD/svg11.dtd" >
<svg xmlns="http://www.w3.org/2000/svg">
<metadata>
This is a custom SVG webfont generated by Font Squirrel.
Copyright   : 2005 Mike Abbink Paul van der Laan published by FSI Fonts und Software GmbH
Designer    : Mike Abbink Paul van der Laan
Foundry     : FSI Fonts und Software GmbH
Foundry URL : httpwwwfontfontcom
</metadata>
<defs>
<font id="KievitProMedium" horiz-adv-x="1024" >
<font-face units-per-em="2048" ascent="1556" descent="-492" />
<missing-glyph horiz-adv-x="425" />
<glyph unicode=" "  horiz-adv-x="425" />
<glyph unicode="&#x09;" horiz-adv-x="425" />
<glyph unicode="&#xa0;" horiz-adv-x="425" />
<glyph unicode="!" horiz-adv-x="595" d="M150 127q0 59 43 101t104 42t104 -42t43 -101q0 -61 -42 -103t-105.5 -42t-105 42t-41.5 103zM168 1364h258l-43 -926h-172z" />
<glyph unicode="&#x22;" horiz-adv-x="735" d="M80 1364h233l-26 -479h-154zM422 1364h233l-53 -479h-153z" />
<glyph unicode="#" horiz-adv-x="1048" d="M47 471l29 162h188l29 196h-189l27 162h186l39 258h158l-39 -258h182l41 258h158l-41 -258h184l-28 -162h-180l-27 -196h180l-26 -162h-181l-39 -274h-157l39 274h-183l-41 -274h-159l43 274h-193zM420 629h188l31 202h-190z" />
<glyph unicode="$" horiz-adv-x="854" d="M68 74l79 157q123 -88 263 -88q195 0 194 115q0 27 -15.5 48.5t-46 38.5t-60 29.5t-80 31t-80.5 32.5q-111 53 -171.5 119t-60.5 170q0 109 67.5 182.5t186.5 96.5v215h191v-209q139 -16 239 -86l-84 -152q-104 72 -235 72q-164 0 -164 -109q0 -16 6 -31.5t20.5 -27.5 t27.5 -22.5t38 -21.5t41 -18.5t48 -19.5l48 -18q137 -55 213 -120t76 -177q0 -121 -70.5 -198t-203.5 -99v-236h-191v229q-170 17 -276 97z" />
<glyph unicode="%" horiz-adv-x="1667" d="M57 711q0 121 86 213t242 92t238 -88t82 -211q0 -125 -85 -217t-239 -92q-156 0 -240 89t-84 214zM242 717q0 -76 35.5 -125t107.5 -49q135 0 135 168q0 74 -34.5 122t-104.5 48t-104.5 -45t-34.5 -119zM449 0l593 991h185l-594 -991h-184zM965 279q0 123 85 214t238 91 q156 0 239 -87t83 -212t-85 -217.5t-241 -92.5q-154 0 -236.5 89.5t-82.5 214.5zM1147 285q0 -74 36 -124t105 -50q137 0 137 168q0 74 -34.5 122t-104.5 48q-139 0 -139 -164z" />
<glyph unicode="&#x26;" horiz-adv-x="1325" d="M72 352q0 129 66.5 218t215.5 171q-80 92 -117.5 167t-37.5 157q0 145 107.5 234.5t277.5 89.5q162 0 262 -83t100 -214q0 -109 -71.5 -194t-227.5 -177l299 -322q72 123 98 275l193 -33q-37 -219 -164 -387l232 -254h-273l-104 113q-174 -137 -387 -138 q-221 0 -345 106.5t-124 270.5zM299 365q0 -94 68.5 -152.5t187.5 -58.5q143 0 254 92l-342 368q-168 -102 -168 -249zM420 1071q0 -98 125 -235q195 115 194 245q0 61 -43 103.5t-112 42.5q-74 0 -119 -43t-45 -113z" />
<glyph unicode="'" horiz-adv-x="409" d="M84 1364h242l-41 -479h-158z" />
<glyph unicode="(" horiz-adv-x="675" d="M96 575q0 268 104.5 504t264.5 396h207q-139 -150 -241.5 -378.5t-102.5 -516.5q0 -535 344 -932h-207q-369 399 -369 927z" />
<glyph unicode=")" horiz-adv-x="675" d="M4 -352q346 377 346 903q0 528 -346 924h209q164 -174 266.5 -411t102.5 -509q0 -274 -104.5 -511t-264.5 -396h-209z" />
<glyph unicode="*" horiz-adv-x="974" d="M92 1024l55 158l261 -99l-13 281h185l-13 -281l260 99l58 -158l-275 -80l178 -221l-141 -100l-160 237l-159 -237l-142 100l176 221z" />
<glyph unicode="+" horiz-adv-x="1159" d="M84 455v172h403v391h193v-391h395v-172h-395v-408h-193v408h-403z" />
<glyph unicode="," horiz-adv-x="522" d="M109 150q0 57 40.5 96t102.5 39q70 0 119 -53.5t49 -141.5q0 -188 -146 -377h-143q84 125 84 215q0 43 -53 101t-53 121z" />
<glyph unicode="-" horiz-adv-x="655" d="M106 492v180h443v-180h-443z" />
<glyph unicode="." horiz-adv-x="522" d="M104 133.5q0 63.5 46.5 107.5t112 44t110.5 -44t45 -107.5t-45 -108.5t-110.5 -45t-112 45t-46.5 108.5z" />
<glyph unicode="/" horiz-adv-x="876" d="M90 -102l543 1501h209l-543 -1501h-209z" />
<glyph unicode="0" horiz-adv-x="1183" d="M72 493.5q0 94.5 31.5 184.5t93 167t165 124t232.5 47q252 0 386 -155.5t134 -360.5q0 -94 -31.5 -185.5t-94 -168t-166 -124t-232.5 -47.5t-231.5 46.5t-164 122t-92 165.5t-30.5 184.5zM305 499.5q0 -155.5 75 -250.5t214 -95t213 92t74 248q0 154 -76 249t-215 95 q-137 0 -211 -91.5t-74 -247z" />
<glyph unicode="1" horiz-adv-x="712" d="M53 899l324 92h170v-991h-215v799l-234 -74z" />
<glyph unicode="2" horiz-adv-x="1015" d="M49 0v94q12 8 65.5 49t79 61.5t81 64.5t87 73t77.5 72t73 75.5t54.5 70.5t39.5 72t12 62q0 68 -44 106t-130 38q-141 0 -247 -111l-113 137q70 68 174 111t213 43q172 0 276.5 -73t104.5 -216q0 -78 -42 -157.5t-125 -159.5t-139.5 -127t-146.5 -115q2 0 22.5 1t49.5 3 t51 2h420v-176h-893z" />
<glyph unicode="3" horiz-adv-x="909" d="M59 879q145 137 367 137q174 0 272.5 -85t98.5 -212q0 -119 -85 -207t-190 -117v-2q129 -16 223.5 -108t94.5 -232q0 -201 -159 -319.5t-402 -118.5q-131 0 -193 12l33 176q66 -14 141 -14q150 0 249 67.5t99 186.5q0 238 -368 238v159q119 2 224 73t105 175 q0 147 -178 148q-121 0 -227 -97z" />
<glyph unicode="4" horiz-adv-x="1196" d="M53 0v139l666 852h188v-819h219v-172h-219v-362h-217v362h-637zM291 172h399v516h-4z" />
<glyph unicode="5" horiz-adv-x="899" d="M76 -369l39 176q66 -14 131 -14q147 0 247.5 75t100.5 212q0 139 -90 204.5t-244 65.5q-84 0 -131 -8l43 649h629v-170h-432l-21 -299q229 -2 353 -121.5t124 -308.5q0 -211 -157.5 -344t-429.5 -133q-90 0 -162 16z" />
<glyph unicode="6" horiz-adv-x="1083" d="M78 563q0 371 223 598.5t608 227.5l47 -177q-315 0 -479 -157q-129 -123 -155 -324q109 92 276 92q186 0 300 -110.5t114 -298.5q0 -190 -128 -314.5t-329 -124.5q-123 0 -218 50.5t-149.5 135.5t-82 186t-27.5 216zM309 530q-6 -170 59.5 -276.5t194.5 -106.5 q100 0 158.5 73t58.5 173q0 125 -57 191.5t-168 66.5q-139 0 -246 -86v-35z" />
<glyph unicode="7" horiz-adv-x="950" d="M37 809v182h831v-129l-594 -1272l-184 91l531 1128h-584z" />
<glyph unicode="8" horiz-adv-x="1075" d="M92 336q0 217 273 373q-233 137 -234 329q0 154 118 252.5t286 98.5q193 0 304 -93.5t111 -242.5q0 -178 -254 -326q285 -156 285 -379q0 -170 -124 -271.5t-320 -101.5q-211 0 -328 103.5t-117 257.5zM313 346q0 -88 61.5 -143.5t164 -55.5t160 57.5t57.5 143.5 q0 139 -242 270q-201 -127 -201 -272zM354 1047q0 -121 191 -232q184 111 184 225q0 78 -49 128.5t-137 50.5q-84 0 -136.5 -48t-52.5 -124z" />
<glyph unicode="9" horiz-adv-x="1087" d="M74 583.5q0 186.5 133 309.5t330 123q125 0 219 -50.5t147 -137.5t78 -187t25 -215q0 -369 -225.5 -587t-628.5 -218l-46 174q145 0 278.5 41t221.5 119q135 121 158 307q-123 -90 -279 -90q-184 0 -297.5 112.5t-113.5 299zM305 592q0 -117 58.5 -183.5t166.5 -66.5 q145 0 246 82l2 37q4 168 -59.5 275.5t-190.5 107.5q-94 0 -158.5 -68.5t-64.5 -183.5z" />
<glyph unicode=":" horiz-adv-x="530" d="M109 135q0 63 45 107.5t110.5 44.5t110.5 -44t45 -108q0 -66 -46 -110.5t-109.5 -44.5t-109.5 44.5t-46 110.5zM109 854.5q0 63.5 45 107.5t110.5 44t110.5 -44t45 -107.5t-45 -109t-110.5 -45.5t-110.5 45.5t-45 109z" />
<glyph unicode=";" horiz-adv-x="530" d="M109 854.5q0 63.5 45 107.5t110.5 44t110.5 -44t45 -107.5t-45 -109t-110.5 -45.5t-110.5 45.5t-45 109zM115 150q0 57 41 96t102 39q70 0 119 -53.5t49 -141.5q0 -186 -145 -377h-144q84 117 84 215q0 43 -53 101t-53 121z" />
<glyph unicode="&#x3c;" horiz-adv-x="774" d="M55 506l518 467l117 -121l-379 -340l381 -336l-117 -129z" />
<glyph unicode="=" horiz-adv-x="962" d="M76 274v175h809v-175h-809zM76 637v172h809v-172h-809z" />
<glyph unicode="&#x3e;" horiz-adv-x="774" d="M80 844l119 129l520 -459l-518 -467l-117 121l379 340z" />
<glyph unicode="?" horiz-adv-x="837" d="M59 1325q123 63 281 64q201 0 308.5 -97.5t107.5 -253.5q0 -88 -39 -160.5t-80 -107.5t-102 -74q-72 -47 -99.5 -80.5t-27.5 -91.5v-96h-197v119q0 86 32.5 141t112.5 107q86 51 126 99t40 128q0 184 -213 184q-78 0 -172 -45zM164 127q0 59 43 101t104.5 42t104.5 -42 t43 -101q0 -61 -43 -103t-104.5 -42t-104.5 42t-43 103z" />
<glyph unicode="@" horiz-adv-x="1619" d="M88 494q0 313 220 550.5t544 237.5q164 0 300 -55.5t221 -145.5t131 -200.5t46 -227.5q0 -209 -109.5 -348t-281.5 -139q-102 0 -157.5 54t-59.5 147h-4q-41 -88 -114.5 -143.5t-164.5 -55.5q-92 0 -146 70.5t-54 171.5q0 223 116.5 383.5t319.5 160.5q117 0 274 -49 l-55 -317q-23 -125 -22 -160q0 -49 25.5 -82t64.5 -33q92 0 153.5 92.5t61.5 233.5q0 227 -151.5 363.5t-393.5 136.5q-236 0 -413 -186.5t-177 -452.5q0 -252 143.5 -400.5t405.5 -148.5q166 0 301 59l57 -135q-172 -70 -381 -70q-319 0 -509.5 195t-190.5 494zM649 442 q0 -115 74 -114q92 0 156.5 125t99.5 299l10 49q-51 18 -104 18q-104 0 -170 -112.5t-66 -264.5z" />
<glyph unicode="A" horiz-adv-x="1343" d="M37 0l520 1364h223l531 -1364h-252l-107 293h-579l-105 -293h-231zM440 481h443l-142 389q-25 68 -49 147t-28 89h-5q-41 -139 -75 -236z" />
<glyph unicode="B" horiz-adv-x="1204" d="M182 0v1364h412q207 0 334 -81t127 -259q0 -244 -244 -307v-4q131 -20 216 -107.5t85 -224.5q0 -381 -524 -381h-406zM410 182h170q152 0 224.5 50.5t72.5 160.5q0 225 -285 225h-182v-436zM410 793h157q133 0 194.5 49t61.5 151q0 188 -252 189h-161v-389z" />
<glyph unicode="C" horiz-adv-x="1263" d="M98 684q0 293 184.5 499t503.5 206q233 0 398 -107l-109 -170q-127 84 -295 84q-207 0 -322.5 -145.5t-115.5 -358.5q0 -223 115.5 -372.5t328.5 -149.5q184 0 320 109l100 -162q-61 -55 -174.5 -98.5t-249.5 -43.5q-215 0 -373.5 101.5t-234.5 260.5t-76 347z" />
<glyph unicode="D" horiz-adv-x="1421" d="M182 0v1364h371q389 0 582.5 -178t193.5 -486q0 -311 -198.5 -505.5t-587.5 -194.5h-361zM414 186h147q260 0 392 128t132 378q0 252 -130 369t-404 117h-137v-992z" />
<glyph unicode="E" horiz-adv-x="1060" d="M182 0v1364h748v-193h-518v-364h456v-184h-456v-430h532v-193h-762z" />
<glyph unicode="F" horiz-adv-x="1026" d="M182 0v1364h752v-193h-520v-378h456v-187h-456v-606h-232z" />
<glyph unicode="G" horiz-adv-x="1452" d="M98 684q0 293 193.5 499t523.5 206q270 0 440 -125l-108 -172q-137 104 -336 104q-229 0 -349 -142.5t-120 -361.5q0 -225 116.5 -375.5t342.5 -150.5q190 0 282 67v320h-270v184h496v-626q-184 -135 -510 -136q-324 0 -512.5 209t-188.5 500z" />
<glyph unicode="H" horiz-adv-x="1507" d="M182 0v1364h232v-555h682v555h231v-1364h-231v618h-682v-618h-232z" />
<glyph unicode="I" horiz-adv-x="624" d="M195 0v1364h231v-1364h-231z" />
<glyph unicode="J" horiz-adv-x="632" d="M-66 -377l37 191q39 -16 88 -17q84 0 122 52.5t38 168.5v1346h234v-1378q0 -188 -92.5 -290t-262.5 -102q-103 0 -164 29z" />
<glyph unicode="K" horiz-adv-x="1234" d="M182 0v1364h230v-627l503 627h261l-523 -637l553 -727h-278l-516 684v-684h-230z" />
<glyph unicode="L" horiz-adv-x="1015" d="M184 0v1364h232v-1176h520v-188h-752z" />
<glyph unicode="M" horiz-adv-x="1777" d="M96 0l187 1364h223l303 -881q37 -113 76 -241h4q51 166 78 241l307 881h223l186 -1364h-235l-100 788q-20 166 -23 195h-4q-27 -98 -59 -192l-273 -791h-225l-277 791q-14 47 -34.5 111.5t-26.5 80.5h-4q-4 -61 -19 -199l-96 -784h-211z" />
<glyph unicode="N" horiz-adv-x="1490" d="M178 0v1364h232l559 -803q51 -76 137 -217h4q-8 90 -8 201v819h211v-1364h-213l-594 854q-27 37 -51.5 75t-45 73.5t-24.5 41.5h-4q8 -82 8 -165v-879h-211z" />
<glyph unicode="O" horiz-adv-x="1570" d="M98 680q0 190 78 349t236.5 259.5t371.5 100.5t373 -99.5t239 -257.5t79 -346q0 -190 -77 -349t-235.5 -260.5t-371.5 -101.5q-317 0 -505 206t-188 499zM342 686q0 -221 115.5 -371.5t326.5 -150.5q215 0 331 147.5t116 368.5q0 223 -113.5 371.5t-326.5 148.5 t-331 -146.5t-118 -367.5z" />
<glyph unicode="P" horiz-adv-x="1165" d="M180 0v1364h400q225 0 364 -106.5t139 -307.5q0 -211 -140 -323.5t-390 -112.5h-141v-514h-232zM412 696h143q154 0 224.5 61.5t70.5 186.5q0 238 -289 238h-149v-486z" />
<glyph unicode="Q" horiz-adv-x="1570" d="M98 680q0 190 78 349t236.5 259.5t371.5 100.5t373 -99.5t239 -257.5t79 -346q0 -250 -135.5 -442.5t-372.5 -247.5q68 -88 135 -127t166 -39q90 0 164 57l77 -157q-90 -76 -249 -76q-156 0 -286 73.5t-272 258.5q-186 16 -325 117.5t-209 251t-70 325.5zM342 686 q0 -221 115.5 -371.5t326.5 -150.5q215 0 331 147.5t116 368.5q0 223 -113.5 371.5t-326.5 148.5t-331 -146.5t-118 -367.5z" />
<glyph unicode="R" horiz-adv-x="1224" d="M182 0v1364h418q227 0 353 -98.5t126 -280.5q0 -160 -97 -252t-249 -110v-5q55 -37 152 -184l299 -434h-260l-260 387q-96 139 -134 172t-98 33h-18v-592h-232zM414 764h178q256 0 256 211q0 207 -268 207h-166v-418z" />
<glyph unicode="S" horiz-adv-x="1042" d="M76 113l104 161q139 -111 301 -110q111 0 177.5 55t66.5 135q0 35 -13.5 65t-28.5 49t-54 45t-59.5 37t-76 37.5t-75.5 37.5q-150 72 -227.5 159.5t-77.5 239.5q0 166 121.5 265.5t300.5 99.5q233 0 380 -113l-100 -164q-127 88 -272 88q-94 0 -150.5 -46t-56.5 -126 q0 -43 16.5 -75.5t58.5 -61.5t72.5 -44.5t100 -48t109.5 -53t96.5 -60.5t87 -81t53 -103.5t22.5 -135.5q0 -176 -128 -283t-343 -107q-143 0 -246.5 43.5t-158.5 94.5z" />
<glyph unicode="T" horiz-adv-x="1062" d="M35 1171v193h993v-193h-379v-1171h-233v1171h-381z" />
<glyph unicode="U" horiz-adv-x="1441" d="M172 520v844h231v-821q0 -193 79 -284t253 -91q162 0 241 93t79 259v844h215v-825q0 -270 -136.5 -417t-404.5 -147q-283 0 -420 141.5t-137 403.5z" />
<glyph unicode="V" horiz-adv-x="1316" d="M31 1364h250l315 -872q16 -45 32.5 -97.5t28 -87.5t15.5 -47h4q61 197 74 232l305 872h231l-508 -1364h-221z" />
<glyph unicode="W" horiz-adv-x="1835" d="M39 1364h248l198 -801q10 -47 22.5 -106.5t20 -98.5t7.5 -41h4l10 43q8 41 21.5 100.5t25.5 106.5l221 797h230l217 -793q12 -47 25.5 -108.5t21.5 -100t8 -40.5h4q0 2 6 39.5t18.5 97t24.5 108.5l203 797h223l-375 -1364h-211l-227 829q-14 49 -27.5 112t-21.5 103 l-8 43h-4q0 -2 -9.5 -41.5t-25 -103t-29.5 -113.5l-239 -829h-213z" />
<glyph unicode="X" horiz-adv-x="1214" d="M45 0l432 702l-411 662h264l288 -471l273 471h237l-397 -659l438 -705h-262l-319 518l-307 -518h-236z" />
<glyph unicode="Y" horiz-adv-x="1185" d="M29 1364h258l321 -633h2l322 633h225l-442 -848v-516h-232v516z" />
<glyph unicode="Z" horiz-adv-x="1159" d="M94 0v154l678 1022h-647v188h926v-147l-686 -1029h706v-188h-977z" />
<glyph unicode="[" horiz-adv-x="667" d="M147 -330v1805h467v-164h-258v-1477h258v-164h-467z" />
<glyph unicode="\" horiz-adv-x="876" d="M8 1475h209l651 -1805h-209z" />
<glyph unicode="]" horiz-adv-x="667" d="M53 -166h258v1477h-258v164h467v-1805h-467v164z" />
<glyph unicode="^" horiz-adv-x="1196" d="M106 590l416 774h150l415 -774h-198l-291 549l-291 -549h-201z" />
<glyph unicode="_" horiz-adv-x="851" d="M-2 -182h856v-172h-856v172z" />
<glyph unicode="`" d="M281 1376h292l179 -268h-191z" />
<glyph unicode="a" horiz-adv-x="1001" d="M78 250q0 121 82 203t195.5 112.5t250.5 30.5h39v72q0 90 -42 130t-136 40q-137 0 -254 -101l-102 140q154 139 378 139q186 0 279.5 -84t93.5 -266v-404q0 -152 25 -262h-215q-12 53 -17 113q-106 -137 -286 -138q-127 0 -209 74t-82 201zM295 262q0 -59 39 -89t92 -30 q129 0 219 111v199h-39q-311 -1 -311 -191z" />
<glyph unicode="b" horiz-adv-x="1101" d="M143 53v1422h217v-562q102 102 246 103q195 0 309.5 -136.5t114.5 -377.5q0 -238 -145.5 -382.5t-370.5 -144.5q-228 0 -371 78zM360 176q55 -25 156 -24q135 0 209 96t74 252q0 154 -60.5 245t-187.5 91q-115 0 -191 -84v-576z" />
<glyph unicode="c" horiz-adv-x="921" d="M72 496q0 244 138 382t353 138q176 0 303 -88l-80 -154q-104 70 -219 70q-131 0 -198.5 -93.5t-67.5 -249t68.5 -253.5t201.5 -98q111 0 228 69l71 -149q-117 -94 -315 -95q-223 0 -353 148t-130 373z" />
<glyph unicode="d" horiz-adv-x="1110" d="M72 494q0 233 125 377.5t315 144.5q152 0 240 -78v537h217v-1227q0 -129 28 -248h-215q-16 45 -20 111q-111 -135 -283 -136q-186 0 -296.5 136.5t-110.5 382.5zM303 496q0 -160 58.5 -250t177.5 -90q129 0 213 116v492q-82 76 -201 76t-183.5 -93t-64.5 -251z" />
<glyph unicode="e" horiz-adv-x="1036" d="M72 502q0 225 132 369.5t337 144.5q199 0 306 -124t107 -343q0 -29 -4 -86h-647q8 -143 75.5 -230.5t205.5 -87.5q121 0 264 78l76 -149q-162 -98 -357 -99q-236 0 -365.5 145.5t-129.5 381.5zM305 618h434q-8 231 -202 232q-191 -1 -232 -232z" />
<glyph unicode="f" horiz-adv-x="704" d="M37 825v166h158v121q0 178 99 282.5t277 104.5q133 0 207 -37l-53 -172q-61 27 -133 27q-180 0 -180 -221v-105h241v-166h-241v-825h-217v825h-158z" />
<glyph unicode="g" horiz-adv-x="1071" d="M76 -217q0 154 168 248q-88 49 -88 149q0 106 106 172q-176 96 -176 301q0 162 113.5 262.5t308.5 100.5q92 0 166 -25h344v-151h-144q55 -84 56 -187q0 -160 -111.5 -260t-304.5 -100q-55 0 -113 10q-51 -27 -51 -67q0 -39 42 -54.5t132 -19.5q215 -12 285 -33 q205 -57 205 -272q0 -154 -147.5 -249t-372.5 -95q-195 0 -306.5 66.5t-111.5 203.5zM285 -182q0 -68 55 -110t166 -42q131 0 210 48t79 124q0 57 -37 87t-70 36t-119 10q-14 2 -20 2q-137 10 -160 15q-104 -68 -104 -170zM301 653q0 -94 55.5 -150.5t151.5 -56.5 t151.5 56.5t55.5 150.5q0 96 -55.5 152.5t-151.5 56.5q-98 0 -152.5 -56.5t-54.5 -152.5z" />
<glyph unicode="h" horiz-adv-x="1112" d="M143 0v1475h217v-613q131 154 316 154q152 0 223.5 -87t71.5 -229v-700h-217v655q0 86 -35 130t-117 44q-127 0 -242 -149v-680h-217z" />
<glyph unicode="i" horiz-adv-x="546" d="M131 1284q0 57 41 98t100 41q61 0 102.5 -41t41.5 -98t-41 -98t-103 -41q-59 0 -100 41t-41 98zM164 0v991h219v-991h-219z" />
<glyph unicode="j" horiz-adv-x="530" d="M-86 -455l37 172q31 -10 74 -10q74 0 103.5 52.5t29.5 170.5v1061h219v-1089q0 -377 -316 -377q-92 0 -147 20zM123 1284q0 57 41 98t100 41q61 0 101.5 -41t40.5 -98t-40 -98t-102 -41q-59 0 -100 41t-41 98z" />
<glyph unicode="k" horiz-adv-x="1013" d="M143 0v1475h217v-910l369 426h244l-387 -440l401 -551h-256l-371 522v-522h-217z" />
<glyph unicode="l" horiz-adv-x="532" d="M158 0v1475h217v-1475h-217z" />
<glyph unicode="m" horiz-adv-x="1656" d="M147 0v991h215v-131q127 156 302 156q195 0 254 -162q143 162 317 162q145 0 213 -86t68 -230v-700h-218v655q0 86 -30.5 130t-106.5 44q-115 0 -221 -131v-698h-217v655q0 174 -135 174q-109 0 -221 -147v-682h-220z" />
<glyph unicode="n" horiz-adv-x="1116" d="M147 0v991h215v-133q131 158 318 158q152 0 223.5 -87t71.5 -229v-700h-217v655q0 86 -35 130t-117 44q-131 0 -239 -149v-680h-220z" />
<glyph unicode="o" horiz-adv-x="1105" d="M72 493.5q0 131.5 45 245t156.5 195.5t273.5 82t276.5 -80t163.5 -193.5t49 -242.5q0 -205 -125 -365t-360 -160q-162 0 -274.5 81t-158.5 193.5t-46 244zM301 499.5q0 -157.5 63.5 -255t188.5 -97.5q127 0 189.5 94.5t62.5 252.5q0 156 -66.5 254t-195.5 98 q-125 0 -183.5 -94.5t-58.5 -252z" />
<glyph unicode="p" horiz-adv-x="1118" d="M147 -449v1440h215v-104q109 129 281 129q186 0 295 -136.5t109 -381.5q0 -233 -124 -378t-319 -145q-150 0 -237 78v-502h-220zM367 227q86 -78 200 -77q117 0 182.5 94t65.5 251.5t-58.5 249t-172.5 91.5q-76 0 -133.5 -40t-83.5 -79v-490z" />
<glyph unicode="q" horiz-adv-x="1105" d="M74 489q0 238 146.5 382.5t369.5 144.5q213 0 371 -74v-1388h-220v524q-98 -102 -243 -103q-195 0 -309.5 136t-114.5 378zM305 492q0 -338 248 -338q61 0 115.5 30.5t72.5 55.5v573q-80 27 -151 27q-135 0 -210 -96t-75 -252z" />
<glyph unicode="r" horiz-adv-x="757" d="M147 0v991h220v-143q98 168 256 168q76 0 120 -25l-53 -194q-35 20 -96 20q-139 0 -227 -174v-643h-220z" />
<glyph unicode="s" horiz-adv-x="849" d="M68 70l79 155q113 -82 244 -82q86 0 133 30t47 85q0 16 -5 29.5t-17 27t-23.5 22.5t-37 21.5t-42 20.5t-52.5 23.5t-58 25.5q-123 55 -183.5 120.5t-60.5 176.5q0 131 93.5 211t250.5 80q170 0 307 -86l-86 -152q-100 68 -215 68q-150 0 -149 -109q0 -35 26.5 -62.5 t50 -38.5t91.5 -38q18 -8 28 -12q143 -59 216 -125t73 -180q0 -145 -101.5 -226.5t-275.5 -81.5q-196 1 -333 97z" />
<glyph unicode="t" horiz-adv-x="755" d="M45 825v166h160v285h217v-285h240v-166h-240v-526q0 -76 23.5 -109.5t82.5 -33.5q70 0 131 41l62 -164q-102 -57 -232 -58q-285 0 -284 289v561h-160z" />
<glyph unicode="u" horiz-adv-x="1114" d="M139 291v700h217v-655q0 -86 35 -130t117 -44q125 0 240 149v680h217v-739q0 -150 24 -252h-217q-14 59 -18 139q-123 -164 -320 -164q-152 0 -223.5 86.5t-71.5 229.5z" />
<glyph unicode="v" horiz-adv-x="997" d="M27 991h235l240 -717h4l239 717h224l-367 -991h-203z" />
<glyph unicode="w" horiz-adv-x="1480" d="M29 991h233l178 -684h4l197 684h205l198 -686h5l180 686h217l-289 -991h-196l-222 711h-4l-223 -711h-197z" />
<glyph unicode="x" horiz-adv-x="1001" d="M39 0l340 516l-324 475h246l205 -307l188 307h226l-310 -465l355 -526h-246l-238 358l-219 -358h-223z" />
<glyph unicode="y" horiz-adv-x="1013" d="M12 -463l31 174q57 -8 88 -8q98 0 148.5 47t87.5 150l43 114l-373 977h235l250 -715h6l234 715h225l-414 -1108q-68 -182 -161 -271t-271 -89q-82 0 -129 14z" />
<glyph unicode="z" horiz-adv-x="905" d="M82 0v125l465 698h-441v168h705v-131l-463 -692h469v-168h-735z" />
<glyph unicode="{" horiz-adv-x="786" d="M55 502v164q229 6 230 215v356q0 117 68.5 177.5t166.5 60.5h215v-164h-131q-63 0 -86.5 -37t-23.5 -113v-325q0 -193 -193 -246v-4q193 -59 193 -260v-346q0 -78 22.5 -112t85.5 -34h133v-164h-215q-94 0 -164.5 62.5t-70.5 177.5v377q0 100 -58.5 156.5t-171.5 58.5z " />
<glyph unicode="|" horiz-adv-x="583" d="M199 -512v2048h186v-2048h-186z" />
<glyph unicode="}" horiz-adv-x="786" d="M53 -166h129q63 0 87 37t24 113v348q0 193 194 246v4q-195 59 -194 260v323q0 80 -21.5 113t-87.5 33h-131v164h215q94 0 164 -62.5t70 -177.5v-354q0 -100 58 -156.5t173 -58.5v-164q-231 -6 -231 -215v-379q0 -117 -68.5 -177.5t-165.5 -60.5h-215v164z" />
<glyph unicode="~" horiz-adv-x="1200" d="M92 526q139 135 297 136q94 0 215 -65t213 -65q98 0 191 84l100 -129q-137 -137 -303 -137q-111 0 -233.5 64.5t-194.5 64.5q-96 0 -182 -82z" />
<glyph unicode="&#xa2;" horiz-adv-x="921" d="M72 496q0 203 97 334t257 169v222h192v-207q141 -10 248 -86l-80 -154q-104 70 -219 70q-131 0 -198.5 -93.5t-67.5 -249t68.5 -253.5t201.5 -98q111 0 228 69l71 -149q-100 -78 -252 -93v-229h-192v242q-168 39 -261 177.5t-93 328.5z" />
<glyph unicode="&#xa3;" horiz-adv-x="1009" d="M121 0v141q104 55 156.5 156.5t52.5 210.5q0 20 -4 70h-201v161h176q-25 156 -25 260q0 176 105.5 283t306.5 107q156 0 273 -74l-93 -156q-80 49 -186 49q-178 0 -178 -223q0 -78 24 -246h301v-161h-282q4 -41 4 -62q0 -119 -43 -208t-98 -132h501v-176h-790z" />
<glyph unicode="&#xa5;" horiz-adv-x="1136" d="M6 1364h258l322 -635h2l321 635h226l-383 -733h270v-158h-332v-131h332v-160h-332v-182h-227v182h-332v160h332v131h-332v158h268z" />
<glyph unicode="&#xa8;" d="M174 1237q0 53 39 91t94 38t94 -38t39 -91t-37.5 -92t-95 -39t-95.5 39t-38 92zM584 1237q0 53 39 91t94 38t94 -38t39 -91t-38 -92t-95.5 -39t-95 39t-37.5 92z" />
<glyph unicode="&#xa9;" horiz-adv-x="1738" d="M106 735.5q0 315.5 223.5 539.5t539 224t539.5 -223t224 -540.5t-224 -541t-539.5 -223.5t-539 224.5t-223.5 540zM250 735.5q0 -276.5 175 -453t443.5 -176.5t443.5 175.5t175 453.5q0 276 -175 452.5t-443.5 176.5t-443.5 -176t-175 -452.5zM424 735.5 q0 196.5 133 330.5t328 134q174 0 297 -106l-95 -129q-90 76 -200 75q-125 0 -199 -90t-74 -211q0 -133 81 -222t200 -89q115 0 221 90l84 -129q-133 -119 -317 -119q-197 0 -328 134.5t-131 331z" />
<glyph unicode="&#xab;" horiz-adv-x="1046" d="M78 502l258 393h223l-256 -393l256 -391h-223zM492 502l258 393h225l-256 -393l256 -391h-225z" />
<glyph unicode="&#xad;" horiz-adv-x="655" d="M106 492v180h443v-180h-443z" />
<glyph unicode="&#xae;" horiz-adv-x="1738" d="M106 735.5q0 315.5 223.5 539.5t539 224t539.5 -223t224 -540.5t-224 -541t-539.5 -223.5t-539 224.5t-223.5 540zM250 735.5q0 -276.5 175 -453t443.5 -176.5t443.5 175.5t175 453.5q0 276 -175 452.5t-443.5 176.5t-443.5 -176t-175 -452.5zM584 301v887h301 q141 0 219 -72t78 -184q0 -96 -58.5 -155.5t-160.5 -76.5q51 -39 104 -125l182 -274h-188l-191 295q-31 51 -55 67.5t-67 16.5v-379h-164zM748 799h86q176 0 176 129t-150 129h-112v-258z" />
<glyph unicode="&#xaf;" d="M227 1161v164h568v-164h-568z" />
<glyph unicode="&#xb4;" d="M301 1108l178 268h295l-282 -268h-191z" />
<glyph unicode="&#xb8;" horiz-adv-x="1017" d="M313 -432l29 104q45 -23 109 -22q98 0 98 76q0 88 -146 79l74 199h133l-47 -127q66 -10 106 -52t40 -104q0 -82 -69 -132t-173 -50q-97 0 -154 29z" />
<glyph unicode="&#xbb;" horiz-adv-x="1046" d="M72 111l256 391l-256 393h223l258 -393l-258 -391h-223zM485 111l256 391l-256 393h224l260 -393l-260 -391h-224z" />
<glyph unicode="&#xc6;" horiz-adv-x="1718" d="M-41 0l780 1364h848v-193h-518v-364h457v-184h-457v-430h533v-193h-762v326h-449l-180 -326h-252zM492 510h348v631z" />
<glyph unicode="&#xe6;" horiz-adv-x="1605" d="M78 250q0 121 82 203t195.5 112.5t250.5 30.5h41v72q0 84 -41 127t-139 43q-125 0 -254 -101l-102 140q156 139 378 139q221 0 304 -135q131 135 317 135q197 0 305.5 -126t108.5 -347q0 -23 -4 -80h-648q6 -143 75 -230.5t204 -87.5q29 0 55.5 3.5t50 9.5t41 11t39 14.5 t30.5 13.5t27.5 14t22.5 12l76 -149q-168 -98 -356 -99q-254 0 -392 185q-156 -184 -376 -185q-127 0 -209 74t-82 201zM295 262q0 -59 39 -89t92 -30q158 0 252 142q-29 76 -35 168h-37q-311 -1 -311 -191zM872 618h435q-2 102 -51.5 167t-149.5 65q-193 -1 -234 -232z" />
<glyph unicode="&#x2c6;" d="M176 1110l256 320h164l254 -320h-193l-147 152l-143 -152h-191z" />
<glyph unicode="&#x2d8;" d="M188 1393h185q4 -70 41 -111t98 -41q125 0 139 152h183q-12 -150 -103.5 -225.5t-218.5 -75.5t-218.5 75.5t-105.5 225.5z" />
<glyph unicode="&#x2da;" d="M301 1317q0 86 63.5 146.5t147.5 60.5t147.5 -60.5t63.5 -146.5t-63.5 -146.5t-147.5 -60.5t-147.5 60.5t-63.5 146.5zM414 1317q0 -43 26.5 -75t71.5 -32t71.5 32t26.5 75q0 47 -26.5 77.5t-71.5 30.5t-71.5 -30.5t-26.5 -77.5z" />
<glyph unicode="&#x2dc;" d="M182 1221q90 141 213 141q61 0 129 -38t103 -38q53 0 110 64l105 -97q-96 -137 -217 -137q-59 0 -127 38t-105 38q-41 0 -106 -66z" />
<glyph unicode="&#x2dd;" d="M109 1108l188 268h270l-278 -268h-180zM487 1108l189 268h270l-278 -268h-181z" />
<glyph unicode="&#x398;" horiz-adv-x="1570" d="M98 680q0 190 78 349t236.5 259.5t371.5 100.5t373 -99.5t239 -257.5t79 -346q0 -190 -77 -349t-235.5 -260.5t-371.5 -101.5q-317 0 -505 206t-188 499zM342 686q0 -221 115.5 -371.5t326.5 -150.5q215 0 331 147.5t116 368.5q0 223 -113.5 371.5t-326.5 148.5 t-331 -146.5t-118 -367.5zM500 592v184h553v-184h-553z" />
<glyph unicode="&#x3a8;" horiz-adv-x="1540" d="M125 965v399h231v-385q0 -369 322 -391v776h201v-776q145 12 234 103t89 267v406h213v-393q0 -264 -138 -405.5t-382 -170.5v-395h-231v395q-256 27 -397.5 168.5t-141.5 401.5z" />
<glyph unicode="&#x3b8;" horiz-adv-x="1114" d="M92 733q0 141 21.5 267t70.5 244t144.5 186.5t226.5 68.5q106 0 189 -46t134.5 -119.5t85 -176t46 -204t12.5 -212.5q0 -113 -12.5 -214t-44 -204.5t-83 -178t-134 -122t-189 -47.5t-189.5 46.5t-134.5 120t-85 176t-46 203.5t-12.5 212zM311 668q6 -143 31 -256t82 -190 t139 -77q221 0 238 523h-490zM313 834h486q-10 215 -70.5 355t-175.5 140q-220 1 -240 -495z" />
<glyph unicode="&#x3c8;" horiz-adv-x="1413" d="M133 428v563h217v-540q0 -150 74 -224.5t188 -79.5v1164h193v-1164q119 4 202 119t83 348q0 193 -62 377h221q61 -162 62 -377q0 -322 -135.5 -476t-364.5 -163v-424h-205v424q-205 8 -339 124t-134 329z" />
<glyph unicode="&#x400;" horiz-adv-x="1060" d="M181 1779h292l179 -268h-191zM182 0v1364h748v-193h-518v-364h456v-184h-456v-430h532v-193h-762z" />
<glyph unicode="&#x401;" horiz-adv-x="1060" d="M182 0v1364h748v-193h-518v-364h456v-184h-456v-430h532v-193h-762zM221 1599q0 53 39 91.5t94.5 38.5t94 -38t38.5 -92q0 -55 -38.5 -93t-94 -38t-94.5 38t-39 93zM631 1599q0 53 39 91.5t94 38.5t94 -38t39 -92q0 -55 -39 -93t-94 -38t-94 38t-39 93z" />
<glyph unicode="&#x402;" horiz-adv-x="1464" d="M35 1171v193h997v-193h-442v-423q57 72 159.5 132t229.5 60q197 0 296 -152.5t99 -404.5q0 -340 -159.5 -564.5t-393.5 -224.5q-86 0 -143 27l45 186q35 -14 98 -14q135 0 226.5 166t91.5 406q0 387 -234 387q-98 0 -181 -56.5t-134 -122.5v-573h-230v1171h-325z" />
<glyph unicode="&#x403;" horiz-adv-x="980" d="M182 0v1364h764v-188h-532v-1176h-232zM412 1470l178 269h295l-283 -269h-190z" />
<glyph unicode="&#x404;" horiz-adv-x="1263" d="M98 684q0 297 184.5 501t503.5 204q233 0 398 -107l-109 -170q-127 84 -295 84q-186 0 -302 -122t-130 -302h615v-184h-613q18 -178 133 -298t303 -120q184 0 320 109l100 -162q-61 -55 -174.5 -98.5t-249.5 -43.5q-322 0 -503 205t-181 504z" />
<glyph unicode="&#x405;" horiz-adv-x="1042" d="M76 113l104 161q139 -111 301 -110q111 0 177.5 55t66.5 135q0 35 -13.5 65t-28.5 49t-54 45t-59.5 37t-76 37.5t-75.5 37.5q-150 72 -227.5 159.5t-77.5 239.5q0 166 121.5 265.5t300.5 99.5q233 0 380 -113l-100 -164q-127 88 -272 88q-94 0 -150.5 -46t-56.5 -126 q0 -43 16.5 -75.5t58.5 -61.5t72.5 -44.5t100 -48t109.5 -53t96.5 -60.5t87 -81t53 -103.5t22.5 -135.5q0 -176 -128 -283t-343 -107q-143 0 -246.5 43.5t-158.5 94.5z" />
<glyph unicode="&#x406;" horiz-adv-x="612" d="M182 0v1364h232v-1364h-232z" />
<glyph unicode="&#x407;" horiz-adv-x="624" d="M-27 1599q0 53 39 91.5t94.5 38.5t94.5 -38t39 -92q0 -55 -38 -93t-95.5 -38t-95.5 38t-38 93zM195 0v1364h231v-1364h-231zM383 1599q0 53 39 91.5t94 38.5t94 -38t39 -92q0 -55 -38 -93t-95 -38t-95 38t-38 93z" />
<glyph unicode="&#x408;" horiz-adv-x="632" d="M-66 -377l37 191q39 -16 88 -17q84 0 122 52.5t38 168.5v1346h234v-1378q0 -188 -92.5 -290t-262.5 -102q-103 0 -164 29z" />
<glyph unicode="&#x409;" horiz-adv-x="1988" d="M51 162q113 8 168 132t76 378l57 692h856v-514h201q225 0 363.5 -106.5t138.5 -307.5q0 -211 -139.5 -323.5t-389.5 -112.5h-403v1171h-418l-45 -550q-25 -330 -129 -485.5t-309 -155.5zM1208 182h174q154 0 224.5 61.5t70.5 186.5q0 238 -288 238h-181v-486z" />
<glyph unicode="&#x40a;" horiz-adv-x="1996" d="M182 0v1364h232v-533h573v533h232v-533h200q225 0 363.5 -103t138.5 -300q0 -207 -140.5 -317.5t-389.5 -110.5h-404v641h-573v-641h-232zM1219 182h174q295 0 295 240q0 227 -289 227h-180v-467z" />
<glyph unicode="&#x40b;" horiz-adv-x="1495" d="M35 1171v193h997v-193h-442v-423q55 72 162.5 132t234.5 60q178 0 281.5 -105.5t103.5 -287.5v-547h-229v502q0 125 -63.5 187.5t-166.5 62.5q-98 0 -186 -57.5t-137 -121.5v-573h-230v1171h-325z" />
<glyph unicode="&#x40c;" horiz-adv-x="1247" d="M182 0v1364h230v-582h106l424 582h252l-487 -641q63 -55 190 -246q14 -20 37.5 -59t35 -54.5t30 -44t28.5 -40.5l26 -31q15 -18 26.5 -25.5t25.5 -16.5t28.5 -12.5t30.5 -3.5h21l-2 -190h-92q-104 0 -174 63.5t-187 247.5q-20 31 -46 72t-40 63.5t-34.5 51t-34 44t-31 30 t-33.5 20.5t-35 6h-65v-598h-230zM528 1470l179 269h294l-282 -269h-191z" />
<glyph unicode="&#x40d;" horiz-adv-x="1497" d="M373 1779h292l179 -268h-191zM182 0v1364h213v-829q0 -119 -8 -201h4q76 127 137 215l555 815h232v-1364h-215v889q0 78 8 168h-4q-43 -82 -119 -193l-592 -864h-211z" />
<glyph unicode="&#x40e;" horiz-adv-x="1167" d="M82 1364h221l303 -688l301 688h223l-466 -1053q-78 -172 -172.5 -244.5t-245.5 -72.5q-70 0 -111 16l31 174q33 -8 72 -8q78 0 130 47t97 150l29 65zM283 1757h184q4 -70 41 -110.5t98 -40.5q125 0 139 151h183q-12 -150 -103.5 -225.5t-218.5 -75.5t-218 75.5 t-105 225.5z" />
<glyph unicode="&#x40f;" horiz-adv-x="1439" d="M182 0v1364h230v-1171h616v1171h232v-1364h-449l-14 -297h-152l-14 297h-449z" />
<glyph unicode="&#x410;" horiz-adv-x="1343" d="M37 0l520 1364h223l531 -1364h-252l-107 293h-579l-105 -293h-231zM440 481h443l-142 389q-25 68 -49 147t-28 89h-5q-41 -139 -75 -236z" />
<glyph unicode="&#x411;" horiz-adv-x="1214" d="M182 0v1364h807v-193h-575v-340h198q225 0 364.5 -103t139.5 -300q0 -207 -140 -317.5t-390 -110.5h-404zM414 182h172q297 0 297 240q0 227 -289 227h-180v-467z" />
<glyph unicode="&#x412;" horiz-adv-x="1204" d="M182 0v1364h412q207 0 334 -81t127 -259q0 -244 -244 -307v-4q131 -20 216 -107.5t85 -224.5q0 -381 -524 -381h-406zM410 182h170q152 0 224.5 50.5t72.5 160.5q0 225 -285 225h-182v-436zM410 793h157q133 0 194.5 49t61.5 151q0 188 -252 189h-161v-389z" />
<glyph unicode="&#x413;" horiz-adv-x="980" d="M182 0v1364h764v-188h-532v-1176h-232z" />
<glyph unicode="&#x414;" horiz-adv-x="1458" d="M49 193h109q68 63 102.5 167.5t56.5 311.5l82 692h826v-1171h141l-43 -490h-149l-21 297h-895l-25 -297h-151zM397 193h596v978h-391l-61 -538q-38 -327 -144 -440z" />
<glyph unicode="&#x415;" horiz-adv-x="1060" d="M182 0v1364h748v-193h-518v-364h456v-184h-456v-430h532v-193h-762z" />
<glyph unicode="&#x416;" horiz-adv-x="1902" d="M53 1364h252l424 -582h107v582h231v-582h107l423 582h252l-489 -641q70 -59 192 -246q123 -195 158 -231q53 -55 111 -56h20l-4 -190h-90q-104 0 -174 63.5t-187 247.5q-20 31 -45.5 72t-40 63.5t-35 51t-33.5 44t-30.5 30t-34 20.5t-34.5 6h-66v-598h-231v598h-72 q-18 0 -33.5 -7t-32 -21.5t-30 -30t-33 -44t-33.5 -50t-39.5 -63.5t-44.5 -71q-119 -184 -188.5 -247.5t-171.5 -63.5h-97l5 190h16q61 0 105 48.5t128 183.5q23 35 35 55q127 190 191 246z" />
<glyph unicode="&#x417;" horiz-adv-x="1083" d="M57 98l107 166q121 -98 309 -98q283 0 283 219q0 106 -79 169.5t-222 63.5h-144v175h117q129 0 201.5 54t72.5 157q0 90 -60 141t-175 51q-172 0 -293 -92l-88 162q147 123 385 123q207 0 335 -92.5t128 -264.5q0 -254 -236 -315v-4q129 -20 211 -110.5t82 -229.5 q0 -197 -144.5 -297.5t-379.5 -100.5q-252 0 -410 123z" />
<glyph unicode="&#x418;" horiz-adv-x="1497" d="M182 0v1364h213v-829q0 -119 -8 -201h4q76 127 137 215l555 815h232v-1364h-215v889q0 78 8 168h-4q-43 -82 -119 -193l-592 -864h-211z" />
<glyph unicode="&#x419;" horiz-adv-x="1497" d="M182 0v1364h213v-829q0 -119 -8 -201h4q76 127 137 215l555 815h232v-1364h-215v889q0 78 8 168h-4q-43 -82 -119 -193l-592 -864h-211zM428 1757h184q4 -70 41 -110.5t99 -40.5q125 0 139 151h182q-12 -150 -103 -225.5t-218 -75.5t-218.5 75.5t-105.5 225.5z" />
<glyph unicode="&#x41a;" horiz-adv-x="1247" d="M182 0v1364h230v-582h106l424 582h252l-487 -641q63 -55 190 -246q14 -20 37.5 -59t35 -54.5t30 -44t28.5 -40.5l26 -31q15 -18 26.5 -25.5t25.5 -16.5t28.5 -12.5t30.5 -3.5h21l-2 -190h-92q-104 0 -174 63.5t-187 247.5q-20 31 -46 72t-40 63.5t-34.5 51t-34 44t-31 30 t-33.5 20.5t-35 6h-65v-598h-230z" />
<glyph unicode="&#x41b;" horiz-adv-x="1390" d="M51 162q113 8 168 132t76 378l57 692h856v-1364h-229v1171h-418l-45 -550q-25 -330 -129 -485.5t-309 -155.5z" />
<glyph unicode="&#x41c;" horiz-adv-x="1777" d="M96 0l187 1364h223l303 -881q37 -113 76 -241h4q51 166 78 241l307 881h223l186 -1364h-235l-100 788q-20 166 -23 195h-4q-27 -98 -59 -192l-273 -791h-225l-277 791q-14 47 -34.5 111.5t-26.5 80.5h-4q-4 -61 -19 -199l-96 -784h-211z" />
<glyph unicode="&#x41d;" horiz-adv-x="1507" d="M182 0v1364h232v-555h682v555h231v-1364h-231v618h-682v-618h-232z" />
<glyph unicode="&#x41e;" horiz-adv-x="1570" d="M98 680q0 190 78 349t236.5 259.5t371.5 100.5t373 -99.5t239 -257.5t79 -346q0 -190 -77 -349t-235.5 -260.5t-371.5 -101.5q-317 0 -505 206t-188 499zM342 686q0 -221 115.5 -371.5t326.5 -150.5q215 0 331 147.5t116 368.5q0 223 -113.5 371.5t-326.5 148.5 t-331 -146.5t-118 -367.5z" />
<glyph unicode="&#x41f;" horiz-adv-x="1456" d="M182 0v1364h1094v-1364h-232v1171h-630v-1171h-232z" />
<glyph unicode="&#x420;" horiz-adv-x="1167" d="M182 0v1364h400q225 0 364 -106.5t139 -307.5q0 -211 -140 -323.5t-390 -112.5h-141v-514h-232zM414 696h141q154 0 224.5 61.5t70.5 186.5q0 238 -287 238h-149v-486z" />
<glyph unicode="&#x421;" horiz-adv-x="1263" d="M98 684q0 293 184.5 499t503.5 206q233 0 398 -107l-109 -170q-127 84 -295 84q-207 0 -322.5 -145.5t-115.5 -358.5q0 -223 115.5 -372.5t328.5 -149.5q184 0 320 109l100 -162q-61 -55 -174.5 -98.5t-249.5 -43.5q-215 0 -373.5 101.5t-234.5 260.5t-76 347z" />
<glyph unicode="&#x422;" horiz-adv-x="1062" d="M35 1171v193h993v-193h-379v-1171h-233v1171h-381z" />
<glyph unicode="&#x423;" horiz-adv-x="1167" d="M82 1364h221l303 -688l301 688h223l-466 -1053q-78 -172 -172.5 -244.5t-245.5 -72.5q-70 0 -111 16l31 174q33 -8 72 -8q78 0 130 47t97 150l29 65z" />
<glyph unicode="&#x424;" horiz-adv-x="1548" d="M63 694q0 231 165 388t431 163v119h230v-119q266 -6 431 -159.5t165 -385.5q0 -236 -164 -392t-432 -161v-147h-230v147q-266 4 -431 159t-165 388zM295 700q0 -166 105.5 -272t275.5 -109v754q-172 -2 -276.5 -106.5t-104.5 -266.5zM874 319q170 2 275.5 107.5 t105.5 267.5q0 166 -104 271.5t-277 107.5v-754z" />
<glyph unicode="&#x425;" horiz-adv-x="1214" d="M45 0l432 702l-411 662h264l288 -471l273 471h237l-397 -659l438 -705h-262l-319 518l-307 -518h-236z" />
<glyph unicode="&#x426;" horiz-adv-x="1490" d="M182 0v1364h230v-1171h616v1171h232v-1171h139l-41 -490h-152l-18 297h-1006z" />
<glyph unicode="&#x427;" horiz-adv-x="1323" d="M117 764v600h229v-555q0 -125 64.5 -189.5t171.5 -64.5q100 0 191 58.5t138 119.5v631h230v-1364h-230v561q-53 -72 -162.5 -132t-240.5 -60q-180 0 -285.5 106.5t-105.5 288.5z" />
<glyph unicode="&#x428;" horiz-adv-x="2103" d="M182 0v1364h230v-1171h514v1171h229v-1171h514v1171h232v-1364h-1719z" />
<glyph unicode="&#x429;" horiz-adv-x="2131" d="M182 0v1364h230v-1171h514v1171h229v-1171h514v1171h232v-1171h139l-41 -490h-152l-18 297h-1647z" />
<glyph unicode="&#x42a;" horiz-adv-x="1357" d="M35 1171v193h545v-514h200q225 0 363.5 -106.5t138.5 -307.5q0 -211 -140.5 -323.5t-389.5 -112.5h-404v1171h-313zM580 182h174q154 0 224.5 61.5t70.5 186.5q0 238 -289 238h-180v-486z" />
<glyph unicode="&#x42b;" horiz-adv-x="1765" d="M182 0v1364h232v-514h198q225 0 364.5 -106.5t139.5 -307.5q0 -211 -140 -323.5t-390 -112.5h-404zM414 182h172q154 0 225.5 61.5t71.5 186.5q0 238 -289 238h-180v-486zM1352 0v1364h231v-1364h-231z" />
<glyph unicode="&#x42c;" horiz-adv-x="1191" d="M182 0v1364h232v-514h198q225 0 364.5 -106.5t139.5 -307.5q0 -211 -140 -323.5t-390 -112.5h-404zM414 182h172q154 0 225.5 61.5t71.5 186.5q0 238 -289 238h-180v-486z" />
<glyph unicode="&#x42d;" horiz-adv-x="1263" d="M57 94l107 170q129 -96 315.5 -96t303 120t130.5 300h-600v184h598q-14 180 -128.5 301t-305.5 121q-166 0 -299 -96l-98 164q162 127 403 127q322 0 502 -202t180 -503q0 -297 -185 -503t-505 -206q-252 0 -418 119z" />
<glyph unicode="&#x42e;" horiz-adv-x="2215" d="M182 0v1364h232v-555h340q39 250 217 415t459 165q317 0 503.5 -205t186.5 -498q0 -190 -77 -349t-235.5 -260.5t-371.5 -101.5q-299 0 -484.5 185.5t-206.5 457.5h-331v-618h-232zM987 686q0 -221 116 -371.5t327 -150.5q215 0 330.5 147.5t115.5 368.5 q0 223 -113.5 371.5t-326.5 148.5q-215 0 -332 -146.5t-117 -367.5z" />
<glyph unicode="&#x42f;" horiz-adv-x="1243" d="M86 190h20q55 0 99.5 46.5t122.5 164.5q20 31 30 48q98 145 150 174v4q-152 12 -249 105t-97 251q0 180 127 280.5t354 100.5h418v-1364h-232v596h-43q-16 -2 -32.5 -9t-32.5 -21.5t-29.5 -30t-33 -44t-34 -49t-40 -62.5t-43.5 -69q-117 -184 -186.5 -247.5t-174.5 -63.5 h-92zM393 977q0 -213 258 -213h178v418h-165q-271 0 -271 -205z" />
<glyph unicode="&#x430;" horiz-adv-x="1001" d="M78 250q0 121 82 203t195.5 112.5t250.5 30.5h39v72q0 90 -42 130t-136 40q-137 0 -254 -101l-102 140q154 139 378 139q186 0 279.5 -84t93.5 -266v-404q0 -152 25 -262h-215q-12 53 -17 113q-106 -137 -286 -138q-127 0 -209 74t-82 201zM295 262q0 -59 39 -89t92 -30 q129 0 219 111v199h-39q-311 -1 -311 -191z" />
<glyph unicode="&#x431;" horiz-adv-x="1105" d="M94 680q0 313 118 499.5t400 245.5l326 70l33 -190l-324 -62q-322 -66 -334 -385q109 139 289 139q188 0 311 -135t123 -368q0 -231 -136 -375t-331 -144q-131 0 -227 56.5t-148.5 157t-76 221t-23.5 270.5zM322 618q0 -238 66.5 -354.5t184.5 -116.5q106 0 169 91.5 t63 250.5q0 156 -59.5 249t-167.5 93q-92 0 -149.5 -40.5t-104.5 -112.5q-2 -13 -2 -60z" />
<glyph unicode="&#x432;" horiz-adv-x="1036" d="M158 0v991h395q360 0 360 -250q0 -178 -182 -223v-4q96 -12 160.5 -74.5t64.5 -165.5q0 -274 -407 -274h-391zM373 164h170q104 0 150 28.5t46 100.5q0 143 -186 143h-180v-272zM373 582h155q174 0 174 131q0 119 -170 118h-159v-249z" />
<glyph unicode="&#x433;" horiz-adv-x="821" d="M158 0v991h628v-170h-411v-821h-217z" />
<glyph unicode="&#x434;" horiz-adv-x="1177" d="M37 170h78q88 63 112 319l54 502h692v-821h123l-41 -467h-144l-20 297h-651l-27 -297h-143zM330 170h432v651h-303l-35 -362q-18 -201 -94 -289z" />
<glyph unicode="&#x435;" horiz-adv-x="1036" d="M72 502q0 225 132 369.5t337 144.5q199 0 306 -124t107 -343q0 -29 -4 -86h-647q8 -143 75.5 -230.5t205.5 -87.5q121 0 264 78l76 -149q-162 -98 -357 -99q-236 0 -365.5 145.5t-129.5 381.5zM305 618h434q-8 231 -202 232q-191 -1 -232 -232z" />
<glyph unicode="&#x436;" horiz-adv-x="1554" d="M37 991h242l317 -409h72v409h219v-409h69l320 409h242l-365 -452q61 -47 150 -183q68 -109 105.5 -149.5t74.5 -40.5h16l-4 -166h-82q-86 0 -140 47t-143 182q-68 109 -109.5 154t-84.5 47h-49v-430h-219v430h-50q-43 -2 -84.5 -47t-109.5 -154q-90 -135 -144.5 -182 t-140.5 -47h-84l2 166h13q39 0 76.5 41t105.5 149q90 139 149 183z" />
<glyph unicode="&#x437;" horiz-adv-x="878" d="M53 70l84 143q98 -68 250 -68q197 0 197 148q0 68 -71 106.5t-169 38.5h-63v140h61q88 0 146.5 35.5t58.5 99t-44 99.5t-126 36q-129 0 -227 -66l-78 142q133 90 311 90q162 0 269.5 -70t107.5 -203q0 -178 -185 -223v-4q96 -12 161 -74.5t65 -165.5q0 -145 -115 -221 t-301 -76q-201 1 -332 93z" />
<glyph unicode="&#x438;" horiz-adv-x="1210" d="M158 0v991h196v-540q0 -23 -1 -46.5t-1 -43t-1 -36t-3 -26.5v-10h2l15 22q14 25 40.5 69t53.5 83l379 528h215v-991h-199v586q0 18 1 39.5t1 38t1 30t3 21.5v8h-4q0 -12 -98 -156l-408 -567h-192z" />
<glyph unicode="&#x439;" horiz-adv-x="1210" d="M158 0v991h196v-540q0 -23 -1 -46.5t-1 -43t-1 -36t-3 -26.5v-10h2l15 22q14 25 40.5 69t53.5 83l379 528h215v-991h-199v586q0 18 1 39.5t1 38t1 30t3 21.5v8h-4q0 -12 -98 -156l-408 -567h-192zM272 1393h185q4 -70 41 -111t98 -41q125 0 139 152h183 q-12 -150 -103.5 -225.5t-218.5 -75.5t-218.5 75.5t-105.5 225.5z" />
<glyph unicode="&#x43a;" horiz-adv-x="1044" d="M158 0v991h219v-409h69l320 409h242l-365 -452q61 -47 150 -183q68 -109 105.5 -149.5t74.5 -40.5h16l-4 -166h-82q-86 0 -140 47t-142 182q-68 109 -110 154t-85 47h-49v-430h-219z" />
<glyph unicode="&#x43b;" horiz-adv-x="1134" d="M43 147q76 6 119 89t59 253l45 502h711v-991h-217v821h-309l-31 -370q-37 -467 -346 -467z" />
<glyph unicode="&#x43c;" horiz-adv-x="1400" d="M80 0l143 991h211l209 -612l53 -170h4q27 98 54 170l215 612h213l139 -991h-223l-66 512l-14 145h-4q-20 -70 -43 -141l-176 -516h-211l-178 516l-41 141h-5q-4 -78 -12 -145l-69 -512h-199z" />
<glyph unicode="&#x43d;" horiz-adv-x="1196" d="M158 0v991h219v-389h442v389h219v-991h-219v426h-442v-426h-219z" />
<glyph unicode="&#x43e;" horiz-adv-x="1105" d="M72 493.5q0 131.5 45 245t156.5 195.5t273.5 82t276.5 -80t163.5 -193.5t49 -242.5q0 -205 -125 -365t-360 -160q-162 0 -274.5 81t-158.5 193.5t-46 244zM301 499.5q0 -157.5 63.5 -255t188.5 -97.5q127 0 189.5 94.5t62.5 252.5q0 156 -66.5 254t-195.5 98 q-125 0 -183.5 -94.5t-58.5 -252z" />
<glyph unicode="&#x43f;" horiz-adv-x="1167" d="M158 0v991h852v-991h-219v817h-414v-817h-219z" />
<glyph unicode="&#x440;" horiz-adv-x="1126" d="M158 -449v1440h215v-104q109 129 280 129q186 0 294 -136.5t108 -381.5q0 -233 -123 -378t-318 -145q-145 0 -239 78v-502h-217zM375 227q86 -78 200 -77q119 0 183.5 94t64.5 251.5t-58 249t-173 91.5q-129 0 -217 -119v-490z" />
<glyph unicode="&#x441;" horiz-adv-x="921" d="M72 496q0 244 138 382t353 138q176 0 303 -88l-80 -154q-104 70 -219 70q-131 0 -198.5 -93.5t-67.5 -249t68.5 -253.5t201.5 -98q111 0 228 69l71 -149q-117 -94 -315 -95q-223 0 -353 148t-130 373z" />
<glyph unicode="&#x442;" horiz-adv-x="892" d="M35 819v172h823v-172h-303v-819h-219v819h-301z" />
<glyph unicode="&#x443;" horiz-adv-x="1003" d="M2 -463l31 174q57 -8 88 -8q98 0 148 47t87 150l43 114l-372 977h235l250 -715h6l234 715h225l-414 -1108q-68 -182 -161 -271t-271 -89q-82 0 -129 14z" />
<glyph unicode="&#x444;" horiz-adv-x="1564" d="M72 493.5q0 231.5 109.5 378t291.5 146.5q119 0 203 -70v527h213v-527q80 70 203 70q182 0 291.5 -143.5t109.5 -375t-110.5 -378t-290.5 -146.5q-123 0 -203 66v-490h-213v490q-84 -66 -203 -66q-182 0 -291.5 143.5t-109.5 375zM301 499.5q0 -153.5 54.5 -251.5 t156.5 -98q94 0 174 75v545q-78 74 -174 74q-102 0 -156.5 -95.5t-54.5 -249zM879 225q80 -76 174 -75q102 0 155.5 95t53.5 249q0 156 -53.5 253t-155.5 97q-96 0 -174 -74v-545z" />
<glyph unicode="&#x445;" horiz-adv-x="1001" d="M39 0l340 516l-324 475h246l205 -307l188 307h226l-310 -465l355 -526h-246l-238 358l-219 -358h-223z" />
<glyph unicode="&#x446;" horiz-adv-x="1216" d="M158 0v991h219v-817h416v817h217v-821h125l-41 -467h-144l-20 297h-772z" />
<glyph unicode="&#x447;" horiz-adv-x="1114" d="M119 578v413h217v-370q0 -176 158 -177q57 0 115.5 35t85 64.5t44.5 54.5v393h219v-991h-219v422q-129 -164 -321 -164q-154 0 -226.5 88.5t-72.5 231.5z" />
<glyph unicode="&#x448;" horiz-adv-x="1703" d="M158 0v991h219v-817h366v817h218v-817h366v817h219v-991h-1388z" />
<glyph unicode="&#x449;" horiz-adv-x="1753" d="M158 0v991h219v-817h366v817h218v-817h366v817h219v-821h125l-41 -467h-145l-19 297h-1308z" />
<glyph unicode="&#x44a;" horiz-adv-x="1120" d="M35 821v170h463v-348h178q180 0 288.5 -80t108.5 -235q0 -162 -111.5 -245t-310.5 -83h-370v821h-246zM498 162h153q205 0 205 162q0 158 -199 157h-159v-319z" />
<glyph unicode="&#x44b;" horiz-adv-x="1519" d="M158 0v991h217v-348h178q180 0 288.5 -80t108.5 -235q0 -162 -111.5 -245t-310.5 -83h-370zM375 162h153q205 0 205 162q0 158 -198 157h-160v-319zM1141 0v991h219v-991h-219z" />
<glyph unicode="&#x44c;" horiz-adv-x="997" d="M158 0v991h217v-348h178q180 0 288.5 -80t108.5 -235q0 -162 -111.5 -245t-310.5 -83h-370zM375 162h153q205 0 205 162q0 158 -198 157h-160v-319z" />
<glyph unicode="&#x44d;" horiz-adv-x="980" d="M49 76l96 157q92 -72 230 -71q125 0 206 71.5t91 186.5h-473v153h473q-10 115 -90 188t-207 73t-221 -68l-86 156q129 90 313 90q252 0 390 -146.5t138 -365.5q0 -221 -142 -367.5t-394 -146.5q-203 0 -324 90z" />
<glyph unicode="&#x44e;" horiz-adv-x="1660" d="M158 0v991h219v-389h260q29 176 144.5 295t318.5 119q238 0 363.5 -155.5t125.5 -360.5q0 -94 -28.5 -184.5t-85 -168t-152.5 -125t-219 -47.5q-215 0 -335 132.5t-138 318.5h-254v-426h-219zM856 500q0 -158 62.5 -255.5t189.5 -97.5t188.5 94.5t61.5 252.5 q0 156 -66.5 254t-193.5 98q-242 0 -242 -346z" />
<glyph unicode="&#x44f;" horiz-adv-x="1052" d="M59 0v166h15q37 0 73.5 33.5t94.5 119.5q72 111 125 130v2q-96 10 -167 75.5t-71 175.5q0 141 100.5 215t286.5 74h379v-991h-217v406h-60q-43 0 -84.5 -42t-105.5 -145q-84 -131 -139.5 -175t-143.5 -44h-86zM350 692q0 -135 170 -135h158v270h-148q-94 0 -137 -32.5 t-43 -102.5z" />
<glyph unicode="&#x450;" horiz-adv-x="1036" d="M166 1407h292l179 -268h-191zM72 502q0 225 132 369.5t337 144.5q199 0 306 -124t107 -343q0 -29 -4 -86h-647q8 -143 75.5 -230.5t205.5 -87.5q121 0 264 78l76 -149q-162 -98 -357 -99q-236 0 -365.5 145.5t-129.5 381.5zM305 618h434q-8 231 -202 232 q-191 -1 -232 -232z" />
<glyph unicode="&#x451;" horiz-adv-x="1036" d="M72 502q0 225 132 369.5t337 144.5q199 0 306 -124t107 -343q0 -29 -4 -86h-647q8 -143 75.5 -230.5t205.5 -87.5q121 0 264 78l76 -149q-162 -98 -357 -99q-236 0 -365.5 145.5t-129.5 381.5zM193 1237q0 53 38.5 91t94 38t94.5 -38t39 -91t-39 -92t-94.5 -39t-94 39 t-38.5 92zM305 618h434q-8 231 -202 232q-191 -1 -232 -232zM602 1237q0 53 39 91t94.5 38t94 -38t38.5 -91t-38.5 -92t-94 -39t-94.5 39t-39 92z" />
<glyph unicode="&#x452;" horiz-adv-x="1114" d="M70 1165v166h88v144h217v-144h321v-166h-321v-272q96 104 243 104q182 0 291 -133t109 -383q0 -270 -98.5 -478t-257.5 -288l-89 138q104 72 163 235.5t59 390.5q0 338 -232 338q-53 0 -105 -25.5t-83 -60.5v-731h-217v1165h-88z" />
<glyph unicode="&#x453;" horiz-adv-x="821" d="M158 0v991h628v-170h-411v-821h-217zM371 1108l178 268h295l-283 -268h-190z" />
<glyph unicode="&#x454;" horiz-adv-x="978" d="M72 495.5q0 219.5 141 367t395 147.5q182 0 307 -82l-94 -158q-92 63 -213 64q-127 0 -208 -73t-91 -186h461v-155h-463q12 -115 92 -187.5t207 -72.5q129 0 236 78l86 -156q-125 -98 -328 -98q-252 0 -390 146t-138 365.5z" />
<glyph unicode="&#x455;" horiz-adv-x="849" d="M68 70l79 155q113 -82 244 -82q86 0 133 30t47 85q0 16 -5 29.5t-17 27t-23.5 22.5t-37 21.5t-42 20.5t-52.5 23.5t-58 25.5q-123 55 -183.5 120.5t-60.5 176.5q0 131 93.5 211t250.5 80q170 0 307 -86l-86 -152q-100 68 -215 68q-150 0 -149 -109q0 -35 26.5 -62.5 t50 -38.5t91.5 -38q18 -8 28 -12q143 -59 216 -125t73 -180q0 -145 -101.5 -226.5t-275.5 -81.5q-196 1 -333 97z" />
<glyph unicode="&#x456;" horiz-adv-x="546" d="M131 1284q0 57 41 98t100 41q61 0 102.5 -41t41.5 -98t-41 -98t-103 -41q-59 0 -100 41t-41 98zM164 0v991h219v-991h-219z" />
<glyph unicode="&#x457;" horiz-adv-x="546" d="M-63 1237q0 53 38.5 91t94 38t94.5 -38t39 -91t-38 -92t-95.5 -39t-95 39t-37.5 92zM164 0v991h219v-991h-219zM346 1237q0 53 39 91t94.5 38t94 -38t38.5 -91t-37.5 -92t-95 -39t-95.5 39t-38 92z" />
<glyph unicode="&#x458;" horiz-adv-x="530" d="M-86 -455l37 172q31 -10 74 -10q74 0 103.5 52.5t29.5 170.5v1061h219v-1089q0 -377 -316 -377q-92 0 -147 20zM123 1284q0 57 41 98t100 41q61 0 101.5 -41t40.5 -98t-40 -98t-102 -41q-59 0 -100 41t-41 98z" />
<glyph unicode="&#x459;" horiz-adv-x="1607" d="M43 147q76 6 119 89t59 253l45 502h719v-348h178q180 0 289 -80t109 -235q0 -162 -112 -245t-310 -83h-371v821h-322l-30 -370q-18 -238 -102.5 -352.5t-239.5 -114.5zM985 162h154q205 0 204 162q0 158 -198 157h-160v-319z" />
<glyph unicode="&#x45a;" horiz-adv-x="1685" d="M158 0v991h219v-358h467v358h219v-358h178q180 0 288.5 -78t108.5 -231q0 -162 -110.5 -243t-310.5 -81h-373v463h-467v-463h-219zM1063 162h154q205 0 204 157q0 152 -198 152h-160v-309z" />
<glyph unicode="&#x45b;" horiz-adv-x="1118" d="M61 1165v166h89v144h219v-144h321v-166h-321v-313q125 154 313 154q152 0 223.5 -86t71.5 -230v-690h-217v645q0 86 -35 130t-117 44q-125 0 -239 -149v-670h-219v1165h-89z" />
<glyph unicode="&#x45c;" horiz-adv-x="1044" d="M158 0v991h219v-409h69l320 409h242l-365 -452q61 -47 150 -183q68 -109 105.5 -149.5t74.5 -40.5h16l-4 -166h-82q-86 0 -140 47t-142 182q-68 109 -110 154t-85 47h-49v-430h-219zM391 1108l178 268h295l-282 -268h-191z" />
<glyph unicode="&#x45d;" horiz-adv-x="1210" d="M230 1407h292l179 -268h-191zM158 0v991h196v-540q0 -23 -1 -46.5t-1 -43t-1 -36t-3 -26.5v-10h2l15 22q14 25 40.5 69t53.5 83l379 528h215v-991h-199v586q0 18 1 39.5t1 38t1 30t3 21.5v8h-4q0 -12 -98 -156l-408 -567h-192z" />
<glyph unicode="&#x45e;" horiz-adv-x="1003" d="M2 -463l31 174q57 -8 88 -8q98 0 148 47t87 150l43 114l-372 977h235l250 -715h6l234 715h225l-414 -1108q-68 -182 -161 -271t-271 -89q-82 0 -129 14zM190 1393h185q4 -70 41 -111t98 -41q125 0 139 152h183q-12 -150 -103.5 -225.5t-218.5 -75.5t-218.5 75.5 t-105.5 225.5z" />
<glyph unicode="&#x45f;" horiz-adv-x="1177" d="M158 0v991h219v-817h424v817h219v-991h-344l-17 -297h-143l-16 297h-342z" />
<glyph unicode="&#x470;" horiz-adv-x="1540" d="M125 965v399h231v-385q0 -369 322 -391v776h201v-776q145 12 234 103t89 267v406h213v-393q0 -264 -138 -405.5t-382 -170.5v-395h-231v395q-256 27 -397.5 168.5t-141.5 401.5z" />
<glyph unicode="&#x471;" horiz-adv-x="1413" d="M133 428v563h217v-540q0 -150 74 -224.5t188 -79.5v1164h193v-1164q119 4 202 119t83 348q0 193 -62 377h221q61 -162 62 -377q0 -322 -135.5 -476t-364.5 -163v-424h-205v424q-205 8 -339 124t-134 329z" />
<glyph unicode="&#x490;" horiz-adv-x="980" d="M182 0v1364h570l24 299h152l26 -487h-540v-1176h-232z" />
<glyph unicode="&#x491;" horiz-adv-x="821" d="M158 0v991h444l21 297h145l35 -467h-428v-821h-217z" />
<glyph unicode="&#x4ae;" horiz-adv-x="1185" d="M29 1364h258l321 -633h2l322 633h225l-442 -848v-516h-232v516z" />
<glyph unicode="&#x4c0;" horiz-adv-x="624" d="M195 0v1364h231v-1364h-231z" />
<glyph unicode="&#x4c1;" horiz-adv-x="1902" d="M628 1813h185q4 -70 41 -111t98 -41q125 0 139 152h183q-12 -150 -103.5 -225.5t-218.5 -75.5t-218.5 75.5t-105.5 225.5zM53 1364h252l424 -582h107v582h231v-582h107l423 582h252l-489 -641q70 -59 192 -246q123 -195 158 -231q53 -55 111 -56h20l-4 -190h-90 q-104 0 -174 63.5t-187 247.5q-20 31 -45.5 72t-40 63.5t-35 51t-33.5 44t-30.5 30t-34 20.5t-34.5 6h-66v-598h-231v598h-72q-18 0 -33.5 -7t-32 -21.5t-30 -30t-33 -44t-33.5 -50t-39.5 -63.5t-44.5 -71q-119 -184 -188.5 -247.5t-171.5 -63.5h-97l5 190h16q61 0 105 48.5 t128 183.5q23 35 35 55q127 190 191 246z" />
<glyph unicode="&#x4c2;" horiz-adv-x="1554" d="M454 1440h185q4 -70 41 -111t98 -41q125 0 139 152h183q-12 -150 -103.5 -225.5t-218.5 -75.5t-218.5 75.5t-105.5 225.5zM37 991h242l317 -409h72v409h219v-409h69l320 409h242l-365 -452q61 -47 150 -183q68 -109 105.5 -149.5t74.5 -40.5h16l-4 -166h-82 q-86 0 -140 47t-143 182q-68 109 -109.5 154t-84.5 47h-49v-430h-219v430h-50q-43 -2 -84.5 -47t-109.5 -154q-90 -135 -144.5 -182t-140.5 -47h-84l2 166h13q39 0 76.5 41t105.5 149q90 139 149 183z" />
<glyph unicode="&#x4d0;" horiz-adv-x="1343" d="M346 1813h185q4 -70 41 -111t98 -41q125 0 139 152h183q-12 -150 -103.5 -225.5t-218.5 -75.5t-218.5 75.5t-105.5 225.5zM37 0l520 1364h223l531 -1364h-252l-107 293h-579l-105 -293h-231zM440 481h443l-142 389q-25 68 -49 147t-28 89h-5q-41 -139 -75 -236z" />
<glyph unicode="&#x4d1;" horiz-adv-x="1001" d="M168 1440h185q4 -70 41 -111t98 -41q125 0 139 152h183q-12 -150 -103.5 -225.5t-218.5 -75.5t-218.5 75.5t-105.5 225.5zM78 250q0 121 82 203t195.5 112.5t250.5 30.5h39v72q0 90 -42 130t-136 40q-137 0 -254 -101l-102 140q154 139 378 139q186 0 279.5 -84 t93.5 -266v-404q0 -152 25 -262h-215q-12 53 -17 113q-106 -137 -286 -138q-127 0 -209 74t-82 201zM295 262q0 -59 39 -89t92 -30q129 0 219 111v199h-39q-311 -1 -311 -191z" />
<glyph unicode="&#x4d2;" horiz-adv-x="1343" d="M330 1643q0 53 39 91t94 38t94 -38t39 -91t-37.5 -92t-95 -39t-95.5 39t-38 92zM740 1643q0 53 39 91t94 38t94 -38t39 -91t-38 -92t-95.5 -39t-95 39t-37.5 92zM37 0l520 1364h223l531 -1364h-252l-107 293h-579l-105 -293h-231zM440 481h443l-142 389q-25 68 -49 147 t-28 89h-5q-41 -139 -75 -236z" />
<glyph unicode="&#x4d3;" horiz-adv-x="1001" d="M151 1270q0 53 39 91t94 38t94 -38t39 -91t-37.5 -92t-95 -39t-95.5 39t-38 92zM561 1270q0 53 39 91t94 38t94 -38t39 -91t-38 -92t-95.5 -39t-95 39t-37.5 92zM78 250q0 121 82 203t195.5 112.5t250.5 30.5h39v72q0 90 -42 130t-136 40q-137 0 -254 -101l-102 140 q154 139 378 139q186 0 279.5 -84t93.5 -266v-404q0 -152 25 -262h-215q-12 53 -17 113q-106 -137 -286 -138q-127 0 -209 74t-82 201zM295 262q0 -59 39 -89t92 -30q129 0 219 111v199h-39q-311 -1 -311 -191z" />
<glyph unicode="&#x4d4;" horiz-adv-x="1718" d="M-41 0l780 1364h848v-193h-518v-364h457v-184h-457v-430h533v-193h-762v326h-449l-180 -326h-252zM492 510h348v631z" />
<glyph unicode="&#x4d5;" horiz-adv-x="1605" d="M78 250q0 121 82 203t195.5 112.5t250.5 30.5h41v72q0 84 -41 127t-139 43q-125 0 -254 -101l-102 140q156 139 378 139q221 0 304 -135q131 135 317 135q197 0 305.5 -126t108.5 -347q0 -23 -4 -80h-648q6 -143 75 -230.5t204 -87.5q29 0 55.5 3.5t50 9.5t41 11t39 14.5 t30.5 13.5t27.5 14t22.5 12l76 -149q-168 -98 -356 -99q-254 0 -392 185q-156 -184 -376 -185q-127 0 -209 74t-82 201zM295 262q0 -59 39 -89t92 -30q158 0 252 142q-29 76 -35 168h-37q-311 -1 -311 -191zM872 618h435q-2 102 -51.5 167t-149.5 65q-193 -1 -234 -232z" />
<glyph unicode="&#x4d6;" horiz-adv-x="1060" d="M233 1813h185q4 -70 41 -111t98 -41q125 0 139 152h183q-12 -150 -103.5 -225.5t-218.5 -75.5t-218.5 75.5t-105.5 225.5zM182 0v1364h748v-193h-518v-364h456v-184h-456v-430h532v-193h-762z" />
<glyph unicode="&#x4d7;" horiz-adv-x="1036" d="M217 1440h185q4 -70 41 -111t98 -41q125 0 139 152h183q-12 -150 -103.5 -225.5t-218.5 -75.5t-218.5 75.5t-105.5 225.5zM72 502q0 225 132 369.5t337 144.5q199 0 306 -124t107 -343q0 -29 -4 -86h-647q8 -143 75.5 -230.5t205.5 -87.5q121 0 264 78l76 -149 q-162 -98 -357 -99q-236 0 -365.5 145.5t-129.5 381.5zM305 618h434q-8 231 -202 232q-191 -1 -232 -232z" />
<glyph unicode="&#x4dc;" horiz-adv-x="1902" d="M612 1643q0 53 39 91t94 38t94 -38t39 -91t-37.5 -92t-95 -39t-95.5 39t-38 92zM1022 1643q0 53 39 91t94 38t94 -38t39 -91t-38 -92t-95.5 -39t-95 39t-37.5 92zM53 1364h252l424 -582h107v582h231v-582h107l423 582h252l-489 -641q70 -59 192 -246q123 -195 158 -231 q53 -55 111 -56h20l-4 -190h-90q-104 0 -174 63.5t-187 247.5q-20 31 -45.5 72t-40 63.5t-35 51t-33.5 44t-30.5 30t-34 20.5t-34.5 6h-66v-598h-231v598h-72q-18 0 -33.5 -7t-32 -21.5t-30 -30t-33 -44t-33.5 -50t-39.5 -63.5t-44.5 -71q-119 -184 -188.5 -247.5 t-171.5 -63.5h-97l5 190h16q61 0 105 48.5t128 183.5q23 35 35 55q127 190 191 246z" />
<glyph unicode="&#x4dd;" horiz-adv-x="1554" d="M440 1270q0 53 39 91t94 38t94 -38t39 -91t-37.5 -92t-95 -39t-95.5 39t-38 92zM850 1270q0 53 39 91t94 38t94 -38t39 -91t-38 -92t-95.5 -39t-95 39t-37.5 92zM37 991h242l317 -409h72v409h219v-409h69l320 409h242l-365 -452q61 -47 150 -183q68 -109 105.5 -149.5 t74.5 -40.5h16l-4 -166h-82q-86 0 -140 47t-143 182q-68 109 -109.5 154t-84.5 47h-49v-430h-219v430h-50q-43 -2 -84.5 -47t-109.5 -154q-90 -135 -144.5 -182t-140.5 -47h-84l2 166h13q39 0 76.5 41t105.5 149q90 139 149 183z" />
<glyph unicode="&#x4de;" horiz-adv-x="1083" d="M133 1643q0 53 39 91t94 38t94 -38t39 -91t-37.5 -92t-95 -39t-95.5 39t-38 92zM543 1643q0 53 39 91t94 38t94 -38t39 -91t-38 -92t-95.5 -39t-95 39t-37.5 92zM57 98l107 166q121 -98 309 -98q283 0 283 219q0 106 -79 169.5t-222 63.5h-144v175h117q129 0 201.5 54 t72.5 157q0 90 -60 141t-175 51q-172 0 -293 -92l-88 162q147 123 385 123q207 0 335 -92.5t128 -264.5q0 -254 -236 -315v-4q129 -20 211 -110.5t82 -229.5q0 -197 -144.5 -297.5t-379.5 -100.5q-252 0 -410 123z" />
<glyph unicode="&#x4df;" horiz-adv-x="878" d="M45 1270q0 53 39 91t94 38t94 -38t39 -91t-37.5 -92t-95 -39t-95.5 39t-38 92zM455 1270q0 53 39 91t94 38t94 -38t39 -91t-38 -92t-95.5 -39t-95 39t-37.5 92zM53 70l84 143q98 -68 250 -68q197 0 197 148q0 68 -71 106.5t-169 38.5h-63v140h61q88 0 146.5 35.5t58.5 99 t-44 99.5t-126 36q-129 0 -227 -66l-78 142q133 90 311 90q162 0 269.5 -70t107.5 -203q0 -178 -185 -223v-4q96 -12 161 -74.5t65 -165.5q0 -145 -115 -221t-301 -76q-201 1 -332 93z" />
<glyph unicode="&#x4e2;" horiz-adv-x="1497" d="M465 1511v164h568v-164h-568zM182 0v1364h213v-829q0 -119 -8 -201h4q76 127 137 215l555 815h232v-1364h-215v889q0 78 8 168h-4q-43 -82 -119 -193l-592 -864h-211z" />
<glyph unicode="&#x4e3;" horiz-adv-x="1210" d="M321 1138v164h568v-164h-568zM158 0v991h196v-540q0 -23 -1 -46.5t-1 -43t-1 -36t-3 -26.5v-10h2l15 22q14 25 40.5 69t53.5 83l379 528h215v-991h-199v586q0 18 1 39.5t1 38t1 30t3 21.5v8h-4q0 -12 -98 -156l-408 -567h-192z" />
<glyph unicode="&#x4e4;" horiz-adv-x="1497" d="M412 1643q0 53 39 91t94 38t94 -38t39 -91t-37.5 -92t-95 -39t-95.5 39t-38 92zM822 1643q0 53 39 91t94 38t94 -38t39 -91t-38 -92t-95.5 -39t-95 39t-37.5 92zM182 0v1364h213v-829q0 -119 -8 -201h4q76 127 137 215l555 815h232v-1364h-215v889q0 78 8 168h-4 q-43 -82 -119 -193l-592 -864h-211z" />
<glyph unicode="&#x4e5;" horiz-adv-x="1210" d="M268 1270q0 53 39 91t94 38t94 -38t39 -91t-37.5 -92t-95 -39t-95.5 39t-38 92zM678 1270q0 53 39 91t94 38t94 -38t39 -91t-38 -92t-95.5 -39t-95 39t-37.5 92zM158 0v991h196v-540q0 -23 -1 -46.5t-1 -43t-1 -36t-3 -26.5v-10h2l15 22q14 25 40.5 69t53.5 83l379 528 h215v-991h-199v586q0 18 1 39.5t1 38t1 30t3 21.5v8h-4q0 -12 -98 -156l-408 -567h-192z" />
<glyph unicode="&#x4e6;" horiz-adv-x="1570" d="M446 1643q0 53 39 91t94 38t94 -38t39 -91t-37.5 -92t-95 -39t-95.5 39t-38 92zM856 1643q0 53 39 91t94 38t94 -38t39 -91t-38 -92t-95.5 -39t-95 39t-37.5 92zM98 680q0 190 78 349t236.5 259.5t371.5 100.5t373 -99.5t239 -257.5t79 -346q0 -190 -77 -349 t-235.5 -260.5t-371.5 -101.5q-317 0 -505 206t-188 499zM342 686q0 -221 115.5 -371.5t326.5 -150.5q215 0 331 147.5t116 368.5q0 223 -113.5 371.5t-326.5 148.5t-331 -146.5t-118 -367.5z" />
<glyph unicode="&#x4e7;" horiz-adv-x="1105" d="M209 1270q0 53 39 91t94 38t94 -38t39 -91t-37.5 -92t-95 -39t-95.5 39t-38 92zM619 1270q0 53 39 91t94 38t94 -38t39 -91t-38 -92t-95.5 -39t-95 39t-37.5 92zM72 493.5q0 131.5 45 245t156.5 195.5t273.5 82t276.5 -80t163.5 -193.5t49 -242.5q0 -205 -125 -365 t-360 -160q-162 0 -274.5 81t-158.5 193.5t-46 244zM301 499.5q0 -157.5 63.5 -255t188.5 -97.5q127 0 189.5 94.5t62.5 252.5q0 156 -66.5 254t-195.5 98q-125 0 -183.5 -94.5t-58.5 -252z" />
<glyph unicode="&#x4e8;" horiz-adv-x="1570" d="M98 680q0 190 78 349t236.5 259.5t371.5 100.5t373 -99.5t239 -257.5t79 -346q0 -190 -77 -349t-235.5 -260.5t-371.5 -101.5q-317 0 -505 206t-188 499zM342 686q0 -221 115.5 -371.5t326.5 -150.5q215 0 331 147.5t116 368.5q0 223 -113.5 371.5t-326.5 148.5 t-331 -146.5t-118 -367.5zM500 592v184h553v-184h-553z" />
<glyph unicode="&#x4e9;" horiz-adv-x="1114" d="M92 733q0 141 21.5 267t70.5 244t144.5 186.5t226.5 68.5q106 0 189 -46t134.5 -119.5t85 -176t46 -204t12.5 -212.5q0 -113 -12.5 -214t-44 -204.5t-83 -178t-134 -122t-189 -47.5t-189.5 46.5t-134.5 120t-85 176t-46 203.5t-12.5 212zM311 668q6 -143 31 -256t82 -190 t139 -77q221 0 238 523h-490zM313 834h486q-10 215 -70.5 355t-175.5 140q-220 1 -240 -495z" />
<glyph unicode="&#x4ea;" horiz-adv-x="1570" d="M446 1643q0 53 39 91t94 38t94 -38t39 -91t-37.5 -92t-95 -39t-95.5 39t-38 92zM856 1643q0 53 39 91t94 38t94 -38t39 -91t-38 -92t-95.5 -39t-95 39t-37.5 92zM98 680q0 190 78 349t236.5 259.5t371.5 100.5t373 -99.5t239 -257.5t79 -346q0 -190 -77 -349 t-235.5 -260.5t-371.5 -101.5q-317 0 -505 206t-188 499zM342 686q0 -221 115.5 -371.5t326.5 -150.5q215 0 331 147.5t116 368.5q0 223 -113.5 371.5t-326.5 148.5t-331 -146.5t-118 -367.5zM500 592v184h553v-184h-553z" />
<glyph unicode="&#x4eb;" horiz-adv-x="1114" d="M217 1753q0 53 39 91t94 38t94 -38t39 -91t-37.5 -92t-95 -39t-95.5 39t-38 92zM627 1753q0 53 39 91t94 38t94 -38t39 -91t-38 -92t-95.5 -39t-95 39t-37.5 92zM92 733q0 141 21.5 267t70.5 244t144.5 186.5t226.5 68.5q106 0 189 -46t134.5 -119.5t85 -176t46 -204 t12.5 -212.5q0 -113 -12.5 -214t-44 -204.5t-83 -178t-134 -122t-189 -47.5t-189.5 46.5t-134.5 120t-85 176t-46 203.5t-12.5 212zM311 668q6 -143 31 -256t82 -190t139 -77q221 0 238 523h-490zM313 834h486q-10 215 -70.5 355t-175.5 140q-220 1 -240 -495z" />
<glyph unicode="&#x4ec;" horiz-adv-x="1263" d="M145 1643q0 53 39 91t94 38t94 -38t39 -91t-37.5 -92t-95 -39t-95.5 39t-38 92zM555 1643q0 53 39 91t94 38t94 -38t39 -91t-38 -92t-95.5 -39t-95 39t-37.5 92zM57 94l107 170q129 -96 315.5 -96t303 120t130.5 300h-600v184h598q-14 180 -128.5 301t-305.5 121 q-166 0 -299 -96l-98 164q162 127 403 127q322 0 502 -202t180 -503q0 -297 -185 -503t-505 -206q-252 0 -418 119z" />
<glyph unicode="&#x4ed;" horiz-adv-x="980" d="M43 1270q0 53 39 91t94 38t94 -38t39 -91t-37.5 -92t-95 -39t-95.5 39t-38 92zM453 1270q0 53 39 91t94 38t94 -38t39 -91t-38 -92t-95.5 -39t-95 39t-37.5 92zM49 76l96 157q92 -72 230 -71q125 0 206 71.5t91 186.5h-473v153h473q-10 115 -90 188t-207 73t-221 -68 l-86 156q129 90 313 90q252 0 390 -146.5t138 -365.5q0 -221 -142 -367.5t-394 -146.5q-203 0 -324 90z" />
<glyph unicode="&#x4ee;" horiz-adv-x="1167" d="M321 1511v164h568v-164h-568zM82 1364h221l303 -688l301 688h223l-466 -1053q-78 -172 -172.5 -244.5t-245.5 -72.5q-70 0 -111 16l31 174q33 -8 72 -8q78 0 130 47t97 150l29 65z" />
<glyph unicode="&#x4ef;" horiz-adv-x="1003" d="M219 1138v164h568v-164h-568zM2 -463l31 174q57 -8 88 -8q98 0 148 47t87 150l43 114l-372 977h235l250 -715h6l234 715h225l-414 -1108q-68 -182 -161 -271t-271 -89q-82 0 -129 14z" />
<glyph unicode="&#x4f0;" horiz-adv-x="1167" d="M268 1643q0 53 39 91t94 38t94 -38t39 -91t-37.5 -92t-95 -39t-95.5 39t-38 92zM678 1643q0 53 39 91t94 38t94 -38t39 -91t-38 -92t-95.5 -39t-95 39t-37.5 92zM82 1364h221l303 -688l301 688h223l-466 -1053q-78 -172 -172.5 -244.5t-245.5 -72.5q-70 0 -111 16l31 174 q33 -8 72 -8q78 0 130 47t97 150l29 65z" />
<glyph unicode="&#x4f1;" horiz-adv-x="1003" d="M164 1270q0 53 39 91t94 38t94 -38t39 -91t-37.5 -92t-95 -39t-95.5 39t-38 92zM574 1270q0 53 39 91t94 38t94 -38t39 -91t-38 -92t-95.5 -39t-95 39t-37.5 92zM2 -463l31 174q57 -8 88 -8q98 0 148 47t87 150l43 114l-372 977h235l250 -715h6l234 715h225l-414 -1108 q-68 -182 -161 -271t-271 -89q-82 0 -129 14z" />
<glyph unicode="&#x4f2;" horiz-adv-x="1167" d="M326 1511l188 268h270l-278 -268h-180zM704 1511l189 268h270l-278 -268h-181zM82 1364h221l303 -688l301 688h223l-466 -1053q-78 -172 -172.5 -244.5t-245.5 -72.5q-70 0 -111 16l31 174q33 -8 72 -8q78 0 130 47t97 150l29 65z" />
<glyph unicode="&#x4f3;" horiz-adv-x="1003" d="M224 1139l188 268h270l-278 -268h-180zM602 1139l189 268h270l-278 -268h-181zM2 -463l31 174q57 -8 88 -8q98 0 148 47t87 150l43 114l-372 977h235l250 -715h6l234 715h225l-414 -1108q-68 -182 -161 -271t-271 -89q-82 0 -129 14z" />
<glyph unicode="&#x4f4;" horiz-adv-x="1323" d="M291 1643q0 53 39 91t94 38t94 -38t39 -91t-37.5 -92t-95 -39t-95.5 39t-38 92zM701 1643q0 53 39 91t94 38t94 -38t39 -91t-38 -92t-95.5 -39t-95 39t-37.5 92zM117 764v600h229v-555q0 -125 64.5 -189.5t171.5 -64.5q100 0 191 58.5t138 119.5v631h230v-1364h-230v561 q-53 -72 -162.5 -132t-240.5 -60q-180 0 -285.5 106.5t-105.5 288.5z" />
<glyph unicode="&#x4f5;" horiz-adv-x="1114" d="M201 1270q0 53 39 91t94 38t94 -38t39 -91t-37.5 -92t-95 -39t-95.5 39t-38 92zM611 1270q0 53 39 91t94 38t94 -38t39 -91t-38 -92t-95.5 -39t-95 39t-37.5 92zM119 578v413h217v-370q0 -176 158 -177q57 0 115.5 35t85 64.5t44.5 54.5v393h219v-991h-219v422 q-129 -164 -321 -164q-154 0 -226.5 88.5t-72.5 231.5z" />
<glyph unicode="&#x4f8;" horiz-adv-x="1765" d="M545 1643q0 53 39 91t94 38t94 -38t39 -91t-37.5 -92t-95 -39t-95.5 39t-38 92zM955 1643q0 53 39 91t94 38t94 -38t39 -91t-38 -92t-95.5 -39t-95 39t-37.5 92zM182 0v1364h232v-514h198q225 0 364.5 -106.5t139.5 -307.5q0 -211 -140 -323.5t-390 -112.5h-404zM414 182 h172q154 0 225.5 61.5t71.5 186.5q0 238 -289 238h-180v-486zM1352 0v1364h231v-1364h-231z" />
<glyph unicode="&#x4f9;" horiz-adv-x="1519" d="M420 1270q0 53 39 91t94 38t94 -38t39 -91t-37.5 -92t-95 -39t-95.5 39t-38 92zM830 1270q0 53 39 91t94 38t94 -38t39 -91t-38 -92t-95.5 -39t-95 39t-37.5 92zM158 0v991h217v-348h178q180 0 288.5 -80t108.5 -235q0 -162 -111.5 -245t-310.5 -83h-370zM375 162h153 q205 0 205 162q0 158 -198 157h-160v-319zM1141 0v991h219v-991h-219z" />
<glyph unicode="&#x2000;" horiz-adv-x="940" />
<glyph unicode="&#x2001;" horiz-adv-x="1882" />
<glyph unicode="&#x2002;" horiz-adv-x="940" />
<glyph unicode="&#x2003;" horiz-adv-x="1882" />
<glyph unicode="&#x2004;" horiz-adv-x="626" />
<glyph unicode="&#x2005;" horiz-adv-x="468" />
<glyph unicode="&#x2006;" horiz-adv-x="313" />
<glyph unicode="&#x2007;" horiz-adv-x="313" />
<glyph unicode="&#x2008;" horiz-adv-x="233" />
<glyph unicode="&#x2009;" horiz-adv-x="374" />
<glyph unicode="&#x200a;" horiz-adv-x="104" />
<glyph unicode="&#x2010;" horiz-adv-x="655" d="M106 492v180h443v-180h-443z" />
<glyph unicode="&#x2011;" horiz-adv-x="655" d="M106 492v180h443v-180h-443z" />
<glyph unicode="&#x2012;" horiz-adv-x="655" d="M106 492v180h443v-180h-443z" />
<glyph unicode="&#x2013;" horiz-adv-x="1103" d="M104 469v172h895v-172h-895z" />
<glyph unicode="&#x2014;" horiz-adv-x="1746" d="M104 469v172h1538v-172h-1538z" />
<glyph unicode="&#x2018;" horiz-adv-x="440" d="M74 1018q0 90 44 187.5t93 158.5h143q-76 -106 -75 -193q0 -43 47 -97t47 -107q0 -55 -39 -90t-98 -35q-68 0 -115 48t-47 128z" />
<glyph unicode="&#x2019;" horiz-adv-x="440" d="M68 1263.5q0 53.5 38.5 89.5t98.5 36q68 0 116 -48.5t48 -128.5q0 -92 -44 -187t-96 -159h-143q76 100 76 191q0 45 -47 99t-47 107.5z" />
<glyph unicode="&#x201a;" horiz-adv-x="473" d="M84 147.5q0 53.5 39 89t98 35.5q68 0 116 -48t48 -128q0 -92 -44 -187t-95 -159h-144q76 106 76 191q0 45 -47 99t-47 107.5z" />
<glyph unicode="&#x201c;" horiz-adv-x="825" d="M59 1018q0 90 44 187.5t94 158.5h143q-76 -106 -76 -193q0 -43 47 -97t47 -107q0 -55 -38.5 -90t-98.5 -35q-68 0 -115 48t-47 128zM459 1018q0 90 44 187.5t93 158.5h143q-76 -106 -75 -193q0 -43 47 -97t47 -107q0 -55 -39 -90t-98 -35q-68 0 -115 48t-47 128z" />
<glyph unicode="&#x201d;" horiz-adv-x="825" d="M68 1263.5q0 53.5 38.5 89.5t98.5 36q68 0 116 -48.5t48 -128.5q0 -92 -44 -187t-96 -159h-143q76 100 76 191q0 45 -47 99t-47 107.5zM467 1263.5q0 53.5 39 89.5t98 36q68 0 116 -48.5t48 -128.5q0 -92 -44 -187t-95 -159h-144q76 106 76 191q0 45 -47 99t-47 107.5z " />
<glyph unicode="&#x201e;" horiz-adv-x="839" d="M68 147.5q0 53.5 38.5 89t98.5 35.5q68 0 116 -48t48 -128q0 -92 -44 -187t-96 -159h-143q76 100 76 191q0 45 -47 99t-47 107.5zM467 147.5q0 53.5 39 89t98 35.5q68 0 116 -48t48 -128q0 -92 -44 -187t-95 -159h-144q76 106 76 191q0 45 -47 99t-47 107.5z" />
<glyph unicode="&#x2022;" horiz-adv-x="827" d="M98 586q0 131 93.5 223t222.5 92q131 0 223 -92t92 -223q0 -129 -92 -220.5t-223 -91.5q-129 0 -222.5 91.5t-93.5 220.5z" />
<glyph unicode="&#x2026;" horiz-adv-x="1429" d="M106 133q0 63 45.5 106.5t110.5 43.5q63 0 108.5 -43t45.5 -106.5t-45 -108.5t-109 -45q-66 0 -111 43.5t-45 109.5zM561 133.5q0 63.5 44 106.5t108 43q66 0 110.5 -43t44.5 -107q0 -66 -45 -109.5t-110 -43.5q-63 0 -107.5 45t-44.5 108.5zM1012 133.5q0 63.5 45 106.5 t110.5 43t109.5 -43t44 -106.5t-44 -108.5t-109.5 -45t-110.5 45t-45 108.5z" />
<glyph unicode="&#x202f;" horiz-adv-x="374" />
<glyph unicode="&#x2039;" horiz-adv-x="634" d="M78 502l258 393h227l-254 -393l254 -391h-227z" />
<glyph unicode="&#x203a;" horiz-adv-x="634" d="M72 111l256 391l-256 393h227l260 -393l-260 -391h-227z" />
<glyph unicode="&#x205f;" horiz-adv-x="468" />
<glyph unicode="&#x20ac;" horiz-adv-x="1198" d="M74 442v160h131q-2 27 -2 84v53h-129v160h149q47 229 198.5 359.5t377.5 130.5q211 0 342 -86l-94 -173q-125 68 -246 68q-127 0 -215 -78t-125 -221h346v-160h-369v-49q0 -61 2 -88h367v-160h-336q82 -274 334 -274q141 0 256 82l94 -164q-156 -111 -358 -111 q-207 0 -359.5 119t-208.5 348h-155z" />
<glyph unicode="&#x2122;" horiz-adv-x="1490" d="M78 1245v119h491v-119h-174v-483h-143v483h-174zM627 762l73 602h150l121 -322q37 -94 37 -118h4l4 18q6 16 15 45t20 57l120 320h152l74 -602h-146l-28 297q-8 72 -9 117h-4q0 -35 -36 -134l-109 -280h-125l-98 272q-43 121 -43 142h-4q0 -29 -9 -119l-28 -295h-131z " />
<glyph unicode="&#xe000;" horiz-adv-x="990" d="M0 990h990v-990h-990v990z" />
</font>
</defs>
</svg>
